solid wood_body
  facet normal 0.00000000 -0.96265094 0.27074558
    outer loop
      vertex -9.10000 -9.10000 0.00000
      vertex 9.10000 -9.10000 0.00000
      vertex 6.40000 -6.40000 9.60000
    endloop
  endfacet
  facet normal 0.00000000 -0.96265094 0.27074558
    outer loop
      vertex -9.10000 -9.10000 0.00000
      vertex 6.40000 -6.40000 9.60000
      vertex -6.40000 -6.40000 9.60000
    endloop
  endfacet
  facet normal 0.96265094 -0.00000000 0.27074558
    outer loop
      vertex 9.10000 -9.10000 0.00000
      vertex 9.10000 9.10000 0.00000
      vertex 6.40000 6.40000 9.60000
    endloop
  endfacet
  facet normal 0.96265094 0.00000000 0.27074558
    outer loop
      vertex 9.10000 -9.10000 0.00000
      vertex 6.40000 6.40000 9.60000
      vertex 6.40000 -6.40000 9.60000
    endloop
  endfacet
  facet normal 0.00000000 0.96265094 0.27074558
    outer loop
      vertex 9.10000 9.10000 0.00000
      vertex -9.10000 9.10000 0.00000
      vertex -6.40000 6.40000 9.60000
    endloop
  endfacet
  facet normal 0.00000000 0.96265094 0.27074558
    outer loop
      vertex 9.10000 9.10000 0.00000
      vertex -6.40000 6.40000 9.60000
      vertex 6.40000 6.40000 9.60000
    endloop
  endfacet
  facet normal -0.96265094 0.00000000 0.27074558
    outer loop
      vertex -9.10000 9.10000 0.00000
      vertex -9.10000 -9.10000 0.00000
      vertex -6.40000 -6.40000 9.60000
    endloop
  endfacet
  facet normal -0.96265094 0.00000000 0.27074558
    outer loop
      vertex -9.10000 9.10000 0.00000
      vertex -6.40000 -6.40000 9.60000
      vertex -6.40000 6.40000 9.60000
    endloop
  endfacet
  facet normal 0.05000470 0.05000470 0.99749640
    outer loop
      vertex -6.40000 -6.40000 9.60000
      vertex -5.33333 -6.40000 9.54653
      vertex -5.33333 -5.33333 9.49306
    endloop
  endfacet
  facet normal 0.05000470 0.05000470 0.99749640
    outer loop
      vertex -6.40000 -6.40000 9.60000
      vertex -5.33333 -5.33333 9.49306
      vertex -6.40000 -5.33333 9.54653
    endloop
  endfacet
  facet normal 0.04092986 0.05002538 0.99790892
    outer loop
      vertex -5.33333 -6.40000 9.54653
      vertex -4.26667 -6.40000 9.50278
      vertex -4.26667 -5.33333 9.44931
    endloop
  endfacet
  facet normal 0.04092986 0.05002538 0.99790892
    outer loop
      vertex -5.33333 -6.40000 9.54653
      vertex -4.26667 -5.33333 9.44931
      vertex -5.33333 -5.33333 9.49306
    endloop
  endfacet
  facet normal 0.03184487 0.05004194 0.99823930
    outer loop
      vertex -4.26667 -6.40000 9.50278
      vertex -3.20000 -6.40000 9.46875
      vertex -3.20000 -5.33333 9.41528
    endloop
  endfacet
  facet normal 0.03184487 0.05004194 0.99823930
    outer loop
      vertex -4.26667 -6.40000 9.50278
      vertex -3.20000 -5.33333 9.41528
      vertex -4.26667 -5.33333 9.44931
    endloop
  endfacet
  facet normal 0.02275199 0.05005438 0.99848731
    outer loop
      vertex -3.20000 -6.40000 9.46875
      vertex -2.13333 -6.40000 9.44444
      vertex -2.13333 -5.33333 9.39097
    endloop
  endfacet
  facet normal 0.02275199 0.05005438 0.99848731
    outer loop
      vertex -3.20000 -6.40000 9.46875
      vertex -2.13333 -5.33333 9.39097
      vertex -3.20000 -5.33333 9.41528
    endloop
  endfacet
  facet normal 0.01365346 0.05006267 0.99865275
    outer loop
      vertex -2.13333 -6.40000 9.44444
      vertex -1.06667 -6.40000 9.42986
      vertex -1.06667 -5.33333 9.37639
    endloop
  endfacet
  facet normal 0.01365346 0.05006267 0.99865275
    outer loop
      vertex -2.13333 -6.40000 9.44444
      vertex -1.06667 -5.33333 9.37639
      vertex -2.13333 -5.33333 9.39097
    endloop
  endfacet
  facet normal 0.00455153 0.05006682 0.99873550
    outer loop
      vertex -1.06667 -6.40000 9.42986
      vertex 0.00000 -6.40000 9.42500
      vertex 0.00000 -5.33333 9.37153
    endloop
  endfacet
  facet normal 0.00455153 0.05006682 0.99873550
    outer loop
      vertex -1.06667 -6.40000 9.42986
      vertex 0.00000 -5.33333 9.37153
      vertex -1.06667 -5.33333 9.37639
    endloop
  endfacet
  facet normal -0.00455153 0.05006682 0.99873550
    outer loop
      vertex 0.00000 -6.40000 9.42500
      vertex 1.06667 -6.40000 9.42986
      vertex 1.06667 -5.33333 9.37639
    endloop
  endfacet
  facet normal -0.00455153 0.05006682 0.99873550
    outer loop
      vertex 0.00000 -6.40000 9.42500
      vertex 1.06667 -5.33333 9.37639
      vertex 0.00000 -5.33333 9.37153
    endloop
  endfacet
  facet normal -0.01365346 0.05006267 0.99865275
    outer loop
      vertex 1.06667 -6.40000 9.42986
      vertex 2.13333 -6.40000 9.44444
      vertex 2.13333 -5.33333 9.39097
    endloop
  endfacet
  facet normal -0.01365346 0.05006267 0.99865275
    outer loop
      vertex 1.06667 -6.40000 9.42986
      vertex 2.13333 -5.33333 9.39097
      vertex 1.06667 -5.33333 9.37639
    endloop
  endfacet
  facet normal -0.02275199 0.05005438 0.99848731
    outer loop
      vertex 2.13333 -6.40000 9.44444
      vertex 3.20000 -6.40000 9.46875
      vertex 3.20000 -5.33333 9.41528
    endloop
  endfacet
  facet normal -0.02275199 0.05005438 0.99848731
    outer loop
      vertex 2.13333 -6.40000 9.44444
      vertex 3.20000 -5.33333 9.41528
      vertex 2.13333 -5.33333 9.39097
    endloop
  endfacet
  facet normal -0.03184487 0.05004194 0.99823930
    outer loop
      vertex 3.20000 -6.40000 9.46875
      vertex 4.26667 -6.40000 9.50278
      vertex 4.26667 -5.33333 9.44931
    endloop
  endfacet
  facet normal -0.03184487 0.05004194 0.99823930
    outer loop
      vertex 3.20000 -6.40000 9.46875
      vertex 4.26667 -5.33333 9.44931
      vertex 3.20000 -5.33333 9.41528
    endloop
  endfacet
  facet normal -0.04092986 0.05002538 0.99790892
    outer loop
      vertex 4.26667 -6.40000 9.50278
      vertex 5.33333 -6.40000 9.54653
      vertex 5.33333 -5.33333 9.49306
    endloop
  endfacet
  facet normal -0.04092986 0.05002538 0.99790892
    outer loop
      vertex 4.26667 -6.40000 9.50278
      vertex 5.33333 -5.33333 9.49306
      vertex 4.26667 -5.33333 9.44931
    endloop
  endfacet
  facet normal -0.05000470 0.05000470 0.99749640
    outer loop
      vertex 5.33333 -6.40000 9.54653
      vertex 6.40000 -6.40000 9.60000
      vertex 6.40000 -5.33333 9.54653
    endloop
  endfacet
  facet normal -0.05000470 0.05000470 0.99749640
    outer loop
      vertex 5.33333 -6.40000 9.54653
      vertex 6.40000 -5.33333 9.54653
      vertex 5.33333 -5.33333 9.49306
    endloop
  endfacet
  facet normal 0.05002538 0.04092986 0.99790892
    outer loop
      vertex -6.40000 -5.33333 9.54653
      vertex -5.33333 -5.33333 9.49306
      vertex -5.33333 -4.26667 9.44931
    endloop
  endfacet
  facet normal 0.05002538 0.04092986 0.99790892
    outer loop
      vertex -6.40000 -5.33333 9.54653
      vertex -5.33333 -4.26667 9.44931
      vertex -6.40000 -4.26667 9.50278
    endloop
  endfacet
  facet normal 0.04094680 0.04094680 0.99832195
    outer loop
      vertex -5.33333 -5.33333 9.49306
      vertex -4.26667 -5.33333 9.44931
      vertex -4.26667 -4.26667 9.40556
    endloop
  endfacet
  facet normal 0.04094680 0.04094680 0.99832195
    outer loop
      vertex -5.33333 -5.33333 9.49306
      vertex -4.26667 -4.26667 9.40556
      vertex -5.33333 -4.26667 9.44931
    endloop
  endfacet
  facet normal 0.03185806 0.04096037 0.99865275
    outer loop
      vertex -4.26667 -5.33333 9.44931
      vertex -3.20000 -5.33333 9.41528
      vertex -3.20000 -4.26667 9.37153
    endloop
  endfacet
  facet normal 0.03185806 0.04096037 0.99865275
    outer loop
      vertex -4.26667 -5.33333 9.44931
      vertex -3.20000 -4.26667 9.37153
      vertex -4.26667 -4.26667 9.40556
    endloop
  endfacet
  facet normal 0.02276142 0.04097055 0.99890106
    outer loop
      vertex -3.20000 -5.33333 9.41528
      vertex -2.13333 -5.33333 9.39097
      vertex -2.13333 -4.26667 9.34722
    endloop
  endfacet
  facet normal 0.02276142 0.04097055 0.99890106
    outer loop
      vertex -3.20000 -5.33333 9.41528
      vertex -2.13333 -4.26667 9.34722
      vertex -3.20000 -4.26667 9.37153
    endloop
  endfacet
  facet normal 0.01365912 0.04097735 0.99906671
    outer loop
      vertex -2.13333 -5.33333 9.39097
      vertex -1.06667 -5.33333 9.37639
      vertex -1.06667 -4.26667 9.33264
    endloop
  endfacet
  facet normal 0.01365912 0.04097735 0.99906671
    outer loop
      vertex -2.13333 -5.33333 9.39097
      vertex -1.06667 -4.26667 9.33264
      vertex -2.13333 -4.26667 9.34722
    endloop
  endfacet
  facet normal 0.00455342 0.04098074 0.99914956
    outer loop
      vertex -1.06667 -5.33333 9.37639
      vertex 0.00000 -5.33333 9.37153
      vertex 0.00000 -4.26667 9.32778
    endloop
  endfacet
  facet normal 0.00455342 0.04098074 0.99914956
    outer loop
      vertex -1.06667 -5.33333 9.37639
      vertex 0.00000 -4.26667 9.32778
      vertex -1.06667 -4.26667 9.33264
    endloop
  endfacet
  facet normal -0.00455342 0.04098074 0.99914956
    outer loop
      vertex 0.00000 -5.33333 9.37153
      vertex 1.06667 -5.33333 9.37639
      vertex 1.06667 -4.26667 9.33264
    endloop
  endfacet
  facet normal -0.00455342 0.04098074 0.99914956
    outer loop
      vertex 0.00000 -5.33333 9.37153
      vertex 1.06667 -4.26667 9.33264
      vertex 0.00000 -4.26667 9.32778
    endloop
  endfacet
  facet normal -0.01365912 0.04097735 0.99906671
    outer loop
      vertex 1.06667 -5.33333 9.37639
      vertex 2.13333 -5.33333 9.39097
      vertex 2.13333 -4.26667 9.34722
    endloop
  endfacet
  facet normal -0.01365912 0.04097735 0.99906671
    outer loop
      vertex 1.06667 -5.33333 9.37639
      vertex 2.13333 -4.26667 9.34722
      vertex 1.06667 -4.26667 9.33264
    endloop
  endfacet
  facet normal -0.02276142 0.04097055 0.99890106
    outer loop
      vertex 2.13333 -5.33333 9.39097
      vertex 3.20000 -5.33333 9.41528
      vertex 3.20000 -4.26667 9.37153
    endloop
  endfacet
  facet normal -0.02276142 0.04097055 0.99890106
    outer loop
      vertex 2.13333 -5.33333 9.39097
      vertex 3.20000 -4.26667 9.37153
      vertex 2.13333 -4.26667 9.34722
    endloop
  endfacet
  facet normal -0.03185806 0.04096037 0.99865275
    outer loop
      vertex 3.20000 -5.33333 9.41528
      vertex 4.26667 -5.33333 9.44931
      vertex 4.26667 -4.26667 9.40556
    endloop
  endfacet
  facet normal -0.03185806 0.04096037 0.99865275
    outer loop
      vertex 3.20000 -5.33333 9.41528
      vertex 4.26667 -4.26667 9.40556
      vertex 3.20000 -4.26667 9.37153
    endloop
  endfacet
  facet normal -0.04094680 0.04094680 0.99832195
    outer loop
      vertex 4.26667 -5.33333 9.44931
      vertex 5.33333 -5.33333 9.49306
      vertex 5.33333 -4.26667 9.44931
    endloop
  endfacet
  facet normal -0.04094680 0.04094680 0.99832195
    outer loop
      vertex 4.26667 -5.33333 9.44931
      vertex 5.33333 -4.26667 9.44931
      vertex 4.26667 -4.26667 9.40556
    endloop
  endfacet
  facet normal -0.05002538 0.04092986 0.99790892
    outer loop
      vertex 5.33333 -5.33333 9.49306
      vertex 6.40000 -5.33333 9.54653
      vertex 6.40000 -4.26667 9.50278
    endloop
  endfacet
  facet normal -0.05002538 0.04092986 0.99790892
    outer loop
      vertex 5.33333 -5.33333 9.49306
      vertex 6.40000 -4.26667 9.50278
      vertex 5.33333 -4.26667 9.44931
    endloop
  endfacet
  facet normal 0.05004194 0.03184487 0.99823930
    outer loop
      vertex -6.40000 -4.26667 9.50278
      vertex -5.33333 -4.26667 9.44931
      vertex -5.33333 -3.20000 9.41528
    endloop
  endfacet
  facet normal 0.05004194 0.03184487 0.99823930
    outer loop
      vertex -6.40000 -4.26667 9.50278
      vertex -5.33333 -3.20000 9.41528
      vertex -6.40000 -3.20000 9.46875
    endloop
  endfacet
  facet normal 0.04096037 0.03185806 0.99865275
    outer loop
      vertex -5.33333 -4.26667 9.44931
      vertex -4.26667 -4.26667 9.40556
      vertex -4.26667 -3.20000 9.37153
    endloop
  endfacet
  facet normal 0.04096037 0.03185806 0.99865275
    outer loop
      vertex -5.33333 -4.26667 9.44931
      vertex -4.26667 -3.20000 9.37153
      vertex -5.33333 -3.20000 9.41528
    endloop
  endfacet
  facet normal 0.03186863 0.03186863 0.99898387
    outer loop
      vertex -4.26667 -4.26667 9.40556
      vertex -3.20000 -4.26667 9.37153
      vertex -3.20000 -3.20000 9.33750
    endloop
  endfacet
  facet normal 0.03186863 0.03186863 0.99898387
    outer loop
      vertex -4.26667 -4.26667 9.40556
      vertex -3.20000 -3.20000 9.33750
      vertex -4.26667 -3.20000 9.37153
    endloop
  endfacet
  facet normal 0.02276897 0.03187656 0.99923244
    outer loop
      vertex -3.20000 -4.26667 9.37153
      vertex -2.13333 -4.26667 9.34722
      vertex -2.13333 -3.20000 9.31319
    endloop
  endfacet
  facet normal 0.02276897 0.03187656 0.99923244
    outer loop
      vertex -3.20000 -4.26667 9.37153
      vertex -2.13333 -3.20000 9.31319
      vertex -3.20000 -3.20000 9.33750
    endloop
  endfacet
  facet normal 0.01366365 0.03188185 0.99939825
    outer loop
      vertex -2.13333 -4.26667 9.34722
      vertex -1.06667 -4.26667 9.33264
      vertex -1.06667 -3.20000 9.29861
    endloop
  endfacet
  facet normal 0.01366365 0.03188185 0.99939825
    outer loop
      vertex -2.13333 -4.26667 9.34722
      vertex -1.06667 -3.20000 9.29861
      vertex -2.13333 -3.20000 9.31319
    endloop
  endfacet
  facet normal 0.00455493 0.03188449 0.99948118
    outer loop
      vertex -1.06667 -4.26667 9.33264
      vertex 0.00000 -4.26667 9.32778
      vertex 0.00000 -3.20000 9.29375
    endloop
  endfacet
  facet normal 0.00455493 0.03188449 0.99948118
    outer loop
      vertex -1.06667 -4.26667 9.33264
      vertex 0.00000 -3.20000 9.29375
      vertex -1.06667 -3.20000 9.29861
    endloop
  endfacet
  facet normal -0.00455493 0.03188449 0.99948118
    outer loop
      vertex 0.00000 -4.26667 9.32778
      vertex 1.06667 -4.26667 9.33264
      vertex 1.06667 -3.20000 9.29861
    endloop
  endfacet
  facet normal -0.00455493 0.03188449 0.99948118
    outer loop
      vertex 0.00000 -4.26667 9.32778
      vertex 1.06667 -3.20000 9.29861
      vertex 0.00000 -3.20000 9.29375
    endloop
  endfacet
  facet normal -0.01366365 0.03188185 0.99939825
    outer loop
      vertex 1.06667 -4.26667 9.33264
      vertex 2.13333 -4.26667 9.34722
      vertex 2.13333 -3.20000 9.31319
    endloop
  endfacet
  facet normal -0.01366365 0.03188185 0.99939825
    outer loop
      vertex 1.06667 -4.26667 9.33264
      vertex 2.13333 -3.20000 9.31319
      vertex 1.06667 -3.20000 9.29861
    endloop
  endfacet
  facet normal -0.02276897 0.03187656 0.99923244
    outer loop
      vertex 2.13333 -4.26667 9.34722
      vertex 3.20000 -4.26667 9.37153
      vertex 3.20000 -3.20000 9.33750
    endloop
  endfacet
  facet normal -0.02276897 0.03187656 0.99923244
    outer loop
      vertex 2.13333 -4.26667 9.34722
      vertex 3.20000 -3.20000 9.33750
      vertex 2.13333 -3.20000 9.31319
    endloop
  endfacet
  facet normal -0.03186863 0.03186863 0.99898387
    outer loop
      vertex 3.20000 -4.26667 9.37153
      vertex 4.26667 -4.26667 9.40556
      vertex 4.26667 -3.20000 9.37153
    endloop
  endfacet
  facet normal -0.03186863 0.03186863 0.99898387
    outer loop
      vertex 3.20000 -4.26667 9.37153
      vertex 4.26667 -3.20000 9.37153
      vertex 3.20000 -3.20000 9.33750
    endloop
  endfacet
  facet normal -0.04096037 0.03185806 0.99865275
    outer loop
      vertex 4.26667 -4.26667 9.40556
      vertex 5.33333 -4.26667 9.44931
      vertex 5.33333 -3.20000 9.41528
    endloop
  endfacet
  facet normal -0.04096037 0.03185806 0.99865275
    outer loop
      vertex 4.26667 -4.26667 9.40556
      vertex 5.33333 -3.20000 9.41528
      vertex 4.26667 -3.20000 9.37153
    endloop
  endfacet
  facet normal -0.05004194 0.03184487 0.99823930
    outer loop
      vertex 5.33333 -4.26667 9.44931
      vertex 6.40000 -4.26667 9.50278
      vertex 6.40000 -3.20000 9.46875
    endloop
  endfacet
  facet normal -0.05004194 0.03184487 0.99823930
    outer loop
      vertex 5.33333 -4.26667 9.44931
      vertex 6.40000 -3.20000 9.46875
      vertex 5.33333 -3.20000 9.41528
    endloop
  endfacet
  facet normal 0.05005438 0.02275199 0.99848731
    outer loop
      vertex -6.40000 -3.20000 9.46875
      vertex -5.33333 -3.20000 9.41528
      vertex -5.33333 -2.13333 9.39097
    endloop
  endfacet
  facet normal 0.05005438 0.02275199 0.99848731
    outer loop
      vertex -6.40000 -3.20000 9.46875
      vertex -5.33333 -2.13333 9.39097
      vertex -6.40000 -2.13333 9.44444
    endloop
  endfacet
  facet normal 0.04097055 0.02276142 0.99890106
    outer loop
      vertex -5.33333 -3.20000 9.41528
      vertex -4.26667 -3.20000 9.37153
      vertex -4.26667 -2.13333 9.34722
    endloop
  endfacet
  facet normal 0.04097055 0.02276142 0.99890106
    outer loop
      vertex -5.33333 -3.20000 9.41528
      vertex -4.26667 -2.13333 9.34722
      vertex -5.33333 -2.13333 9.39097
    endloop
  endfacet
  facet normal 0.03187656 0.02276897 0.99923244
    outer loop
      vertex -4.26667 -3.20000 9.37153
      vertex -3.20000 -3.20000 9.33750
      vertex -3.20000 -2.13333 9.31319
    endloop
  endfacet
  facet normal 0.03187656 0.02276897 0.99923244
    outer loop
      vertex -4.26667 -3.20000 9.37153
      vertex -3.20000 -2.13333 9.31319
      vertex -4.26667 -2.13333 9.34722
    endloop
  endfacet
  facet normal 0.02277464 0.02277464 0.99948118
    outer loop
      vertex -3.20000 -3.20000 9.33750
      vertex -2.13333 -3.20000 9.31319
      vertex -2.13333 -2.13333 9.28889
    endloop
  endfacet
  facet normal 0.02277464 0.02277464 0.99948118
    outer loop
      vertex -3.20000 -3.20000 9.33750
      vertex -2.13333 -2.13333 9.28889
      vertex -3.20000 -2.13333 9.31319
    endloop
  endfacet
  facet normal 0.01366705 0.02277842 0.99964712
    outer loop
      vertex -2.13333 -3.20000 9.31319
      vertex -1.06667 -3.20000 9.29861
      vertex -1.06667 -2.13333 9.27431
    endloop
  endfacet
  facet normal 0.01366705 0.02277842 0.99964712
    outer loop
      vertex -2.13333 -3.20000 9.31319
      vertex -1.06667 -2.13333 9.27431
      vertex -2.13333 -2.13333 9.28889
    endloop
  endfacet
  facet normal 0.00455606 0.02278031 0.99973011
    outer loop
      vertex -1.06667 -3.20000 9.29861
      vertex 0.00000 -3.20000 9.29375
      vertex 0.00000 -2.13333 9.26944
    endloop
  endfacet
  facet normal 0.00455606 0.02278031 0.99973011
    outer loop
      vertex -1.06667 -3.20000 9.29861
      vertex 0.00000 -2.13333 9.26944
      vertex -1.06667 -2.13333 9.27431
    endloop
  endfacet
  facet normal -0.00455606 0.02278031 0.99973011
    outer loop
      vertex 0.00000 -3.20000 9.29375
      vertex 1.06667 -3.20000 9.29861
      vertex 1.06667 -2.13333 9.27431
    endloop
  endfacet
  facet normal -0.00455606 0.02278031 0.99973011
    outer loop
      vertex 0.00000 -3.20000 9.29375
      vertex 1.06667 -2.13333 9.27431
      vertex 0.00000 -2.13333 9.26944
    endloop
  endfacet
  facet normal -0.01366705 0.02277842 0.99964712
    outer loop
      vertex 1.06667 -3.20000 9.29861
      vertex 2.13333 -3.20000 9.31319
      vertex 2.13333 -2.13333 9.28889
    endloop
  endfacet
  facet normal -0.01366705 0.02277842 0.99964712
    outer loop
      vertex 1.06667 -3.20000 9.29861
      vertex 2.13333 -2.13333 9.28889
      vertex 1.06667 -2.13333 9.27431
    endloop
  endfacet
  facet normal -0.02277464 0.02277464 0.99948118
    outer loop
      vertex 2.13333 -3.20000 9.31319
      vertex 3.20000 -3.20000 9.33750
      vertex 3.20000 -2.13333 9.31319
    endloop
  endfacet
  facet normal -0.02277464 0.02277464 0.99948118
    outer loop
      vertex 2.13333 -3.20000 9.31319
      vertex 3.20000 -2.13333 9.31319
      vertex 2.13333 -2.13333 9.28889
    endloop
  endfacet
  facet normal -0.03187656 0.02276897 0.99923244
    outer loop
      vertex 3.20000 -3.20000 9.33750
      vertex 4.26667 -3.20000 9.37153
      vertex 4.26667 -2.13333 9.34722
    endloop
  endfacet
  facet normal -0.03187656 0.02276897 0.99923244
    outer loop
      vertex 3.20000 -3.20000 9.33750
      vertex 4.26667 -2.13333 9.34722
      vertex 3.20000 -2.13333 9.31319
    endloop
  endfacet
  facet normal -0.04097055 0.02276142 0.99890106
    outer loop
      vertex 4.26667 -3.20000 9.37153
      vertex 5.33333 -3.20000 9.41528
      vertex 5.33333 -2.13333 9.39097
    endloop
  endfacet
  facet normal -0.04097055 0.02276142 0.99890106
    outer loop
      vertex 4.26667 -3.20000 9.37153
      vertex 5.33333 -2.13333 9.39097
      vertex 4.26667 -2.13333 9.34722
    endloop
  endfacet
  facet normal -0.05005438 0.02275199 0.99848731
    outer loop
      vertex 5.33333 -3.20000 9.41528
      vertex 6.40000 -3.20000 9.46875
      vertex 6.40000 -2.13333 9.44444
    endloop
  endfacet
  facet normal -0.05005438 0.02275199 0.99848731
    outer loop
      vertex 5.33333 -3.20000 9.41528
      vertex 6.40000 -2.13333 9.44444
      vertex 5.33333 -2.13333 9.39097
    endloop
  endfacet
  facet normal 0.05006267 0.01365346 0.99865275
    outer loop
      vertex -6.40000 -2.13333 9.44444
      vertex -5.33333 -2.13333 9.39097
      vertex -5.33333 -1.06667 9.37639
    endloop
  endfacet
  facet normal 0.05006267 0.01365346 0.99865275
    outer loop
      vertex -6.40000 -2.13333 9.44444
      vertex -5.33333 -1.06667 9.37639
      vertex -6.40000 -1.06667 9.42986
    endloop
  endfacet
  facet normal 0.04097735 0.01365912 0.99906671
    outer loop
      vertex -5.33333 -2.13333 9.39097
      vertex -4.26667 -2.13333 9.34722
      vertex -4.26667 -1.06667 9.33264
    endloop
  endfacet
  facet normal 0.04097735 0.01365912 0.99906671
    outer loop
      vertex -5.33333 -2.13333 9.39097
      vertex -4.26667 -1.06667 9.33264
      vertex -5.33333 -1.06667 9.37639
    endloop
  endfacet
  facet normal 0.03188185 0.01366365 0.99939825
    outer loop
      vertex -4.26667 -2.13333 9.34722
      vertex -3.20000 -2.13333 9.31319
      vertex -3.20000 -1.06667 9.29861
    endloop
  endfacet
  facet normal 0.03188185 0.01366365 0.99939825
    outer loop
      vertex -4.26667 -2.13333 9.34722
      vertex -3.20000 -1.06667 9.29861
      vertex -4.26667 -1.06667 9.33264
    endloop
  endfacet
  facet normal 0.02277842 0.01366705 0.99964712
    outer loop
      vertex -3.20000 -2.13333 9.31319
      vertex -2.13333 -2.13333 9.28889
      vertex -2.13333 -1.06667 9.27431
    endloop
  endfacet
  facet normal 0.02277842 0.01366705 0.99964712
    outer loop
      vertex -3.20000 -2.13333 9.31319
      vertex -2.13333 -1.06667 9.27431
      vertex -3.20000 -1.06667 9.29861
    endloop
  endfacet
  facet normal 0.01366932 0.01366932 0.99981313
    outer loop
      vertex -2.13333 -2.13333 9.28889
      vertex -1.06667 -2.13333 9.27431
      vertex -1.06667 -1.06667 9.25972
    endloop
  endfacet
  facet normal 0.01366932 0.01366932 0.99981313
    outer loop
      vertex -2.13333 -2.13333 9.28889
      vertex -1.06667 -1.06667 9.25972
      vertex -2.13333 -1.06667 9.27431
    endloop
  endfacet
  facet normal 0.00455682 0.01367046 0.99989617
    outer loop
      vertex -1.06667 -2.13333 9.27431
      vertex 0.00000 -2.13333 9.26944
      vertex 0.00000 -1.06667 9.25486
    endloop
  endfacet
  facet normal 0.00455682 0.01367046 0.99989617
    outer loop
      vertex -1.06667 -2.13333 9.27431
      vertex 0.00000 -1.06667 9.25486
      vertex -1.06667 -1.06667 9.25972
    endloop
  endfacet
  facet normal -0.00455682 0.01367046 0.99989617
    outer loop
      vertex 0.00000 -2.13333 9.26944
      vertex 1.06667 -2.13333 9.27431
      vertex 1.06667 -1.06667 9.25972
    endloop
  endfacet
  facet normal -0.00455682 0.01367046 0.99989617
    outer loop
      vertex 0.00000 -2.13333 9.26944
      vertex 1.06667 -1.06667 9.25972
      vertex 0.00000 -1.06667 9.25486
    endloop
  endfacet
  facet normal -0.01366932 0.01366932 0.99981313
    outer loop
      vertex 1.06667 -2.13333 9.27431
      vertex 2.13333 -2.13333 9.28889
      vertex 2.13333 -1.06667 9.27431
    endloop
  endfacet
  facet normal -0.01366932 0.01366932 0.99981313
    outer loop
      vertex 1.06667 -2.13333 9.27431
      vertex 2.13333 -1.06667 9.27431
      vertex 1.06667 -1.06667 9.25972
    endloop
  endfacet
  facet normal -0.02277842 0.01366705 0.99964712
    outer loop
      vertex 2.13333 -2.13333 9.28889
      vertex 3.20000 -2.13333 9.31319
      vertex 3.20000 -1.06667 9.29861
    endloop
  endfacet
  facet normal -0.02277842 0.01366705 0.99964712
    outer loop
      vertex 2.13333 -2.13333 9.28889
      vertex 3.20000 -1.06667 9.29861
      vertex 2.13333 -1.06667 9.27431
    endloop
  endfacet
  facet normal -0.03188185 0.01366365 0.99939825
    outer loop
      vertex 3.20000 -2.13333 9.31319
      vertex 4.26667 -2.13333 9.34722
      vertex 4.26667 -1.06667 9.33264
    endloop
  endfacet
  facet normal -0.03188185 0.01366365 0.99939825
    outer loop
      vertex 3.20000 -2.13333 9.31319
      vertex 4.26667 -1.06667 9.33264
      vertex 3.20000 -1.06667 9.29861
    endloop
  endfacet
  facet normal -0.04097735 0.01365912 0.99906671
    outer loop
      vertex 4.26667 -2.13333 9.34722
      vertex 5.33333 -2.13333 9.39097
      vertex 5.33333 -1.06667 9.37639
    endloop
  endfacet
  facet normal -0.04097735 0.01365912 0.99906671
    outer loop
      vertex 4.26667 -2.13333 9.34722
      vertex 5.33333 -1.06667 9.37639
      vertex 4.26667 -1.06667 9.33264
    endloop
  endfacet
  facet normal -0.05006267 0.01365346 0.99865275
    outer loop
      vertex 5.33333 -2.13333 9.39097
      vertex 6.40000 -2.13333 9.44444
      vertex 6.40000 -1.06667 9.42986
    endloop
  endfacet
  facet normal -0.05006267 0.01365346 0.99865275
    outer loop
      vertex 5.33333 -2.13333 9.39097
      vertex 6.40000 -1.06667 9.42986
      vertex 5.33333 -1.06667 9.37639
    endloop
  endfacet
  facet normal 0.05006682 0.00455153 0.99873550
    outer loop
      vertex -6.40000 -1.06667 9.42986
      vertex -5.33333 -1.06667 9.37639
      vertex -5.33333 0.00000 9.37153
    endloop
  endfacet
  facet normal 0.05006682 0.00455153 0.99873550
    outer loop
      vertex -6.40000 -1.06667 9.42986
      vertex -5.33333 0.00000 9.37153
      vertex -6.40000 0.00000 9.42500
    endloop
  endfacet
  facet normal 0.04098074 0.00455342 0.99914956
    outer loop
      vertex -5.33333 -1.06667 9.37639
      vertex -4.26667 -1.06667 9.33264
      vertex -4.26667 0.00000 9.32778
    endloop
  endfacet
  facet normal 0.04098074 0.00455342 0.99914956
    outer loop
      vertex -5.33333 -1.06667 9.37639
      vertex -4.26667 0.00000 9.32778
      vertex -5.33333 0.00000 9.37153
    endloop
  endfacet
  facet normal 0.03188449 0.00455493 0.99948118
    outer loop
      vertex -4.26667 -1.06667 9.33264
      vertex -3.20000 -1.06667 9.29861
      vertex -3.20000 0.00000 9.29375
    endloop
  endfacet
  facet normal 0.03188449 0.00455493 0.99948118
    outer loop
      vertex -4.26667 -1.06667 9.33264
      vertex -3.20000 0.00000 9.29375
      vertex -4.26667 0.00000 9.32778
    endloop
  endfacet
  facet normal 0.02278031 0.00455606 0.99973011
    outer loop
      vertex -3.20000 -1.06667 9.29861
      vertex -2.13333 -1.06667 9.27431
      vertex -2.13333 0.00000 9.26944
    endloop
  endfacet
  facet normal 0.02278031 0.00455606 0.99973011
    outer loop
      vertex -3.20000 -1.06667 9.29861
      vertex -2.13333 0.00000 9.26944
      vertex -3.20000 0.00000 9.29375
    endloop
  endfacet
  facet normal 0.01367046 0.00455682 0.99989617
    outer loop
      vertex -2.13333 -1.06667 9.27431
      vertex -1.06667 -1.06667 9.25972
      vertex -1.06667 0.00000 9.25486
    endloop
  endfacet
  facet normal 0.01367046 0.00455682 0.99989617
    outer loop
      vertex -2.13333 -1.06667 9.27431
      vertex -1.06667 0.00000 9.25486
      vertex -2.13333 0.00000 9.26944
    endloop
  endfacet
  facet normal 0.00455720 0.00455720 0.99997923
    outer loop
      vertex -1.06667 -1.06667 9.25972
      vertex 0.00000 -1.06667 9.25486
      vertex 0.00000 0.00000 9.25000
    endloop
  endfacet
  facet normal 0.00455720 0.00455720 0.99997923
    outer loop
      vertex -1.06667 -1.06667 9.25972
      vertex 0.00000 0.00000 9.25000
      vertex -1.06667 0.00000 9.25486
    endloop
  endfacet
  facet normal -0.00455720 0.00455720 0.99997923
    outer loop
      vertex 0.00000 -1.06667 9.25486
      vertex 1.06667 -1.06667 9.25972
      vertex 1.06667 0.00000 9.25486
    endloop
  endfacet
  facet normal -0.00455720 0.00455720 0.99997923
    outer loop
      vertex 0.00000 -1.06667 9.25486
      vertex 1.06667 0.00000 9.25486
      vertex 0.00000 0.00000 9.25000
    endloop
  endfacet
  facet normal -0.01367046 0.00455682 0.99989617
    outer loop
      vertex 1.06667 -1.06667 9.25972
      vertex 2.13333 -1.06667 9.27431
      vertex 2.13333 0.00000 9.26944
    endloop
  endfacet
  facet normal -0.01367046 0.00455682 0.99989617
    outer loop
      vertex 1.06667 -1.06667 9.25972
      vertex 2.13333 0.00000 9.26944
      vertex 1.06667 0.00000 9.25486
    endloop
  endfacet
  facet normal -0.02278031 0.00455606 0.99973011
    outer loop
      vertex 2.13333 -1.06667 9.27431
      vertex 3.20000 -1.06667 9.29861
      vertex 3.20000 0.00000 9.29375
    endloop
  endfacet
  facet normal -0.02278031 0.00455606 0.99973011
    outer loop
      vertex 2.13333 -1.06667 9.27431
      vertex 3.20000 0.00000 9.29375
      vertex 2.13333 0.00000 9.26944
    endloop
  endfacet
  facet normal -0.03188449 0.00455493 0.99948118
    outer loop
      vertex 3.20000 -1.06667 9.29861
      vertex 4.26667 -1.06667 9.33264
      vertex 4.26667 0.00000 9.32778
    endloop
  endfacet
  facet normal -0.03188449 0.00455493 0.99948118
    outer loop
      vertex 3.20000 -1.06667 9.29861
      vertex 4.26667 0.00000 9.32778
      vertex 3.20000 0.00000 9.29375
    endloop
  endfacet
  facet normal -0.04098074 0.00455342 0.99914956
    outer loop
      vertex 4.26667 -1.06667 9.33264
      vertex 5.33333 -1.06667 9.37639
      vertex 5.33333 0.00000 9.37153
    endloop
  endfacet
  facet normal -0.04098074 0.00455342 0.99914956
    outer loop
      vertex 4.26667 -1.06667 9.33264
      vertex 5.33333 0.00000 9.37153
      vertex 4.26667 0.00000 9.32778
    endloop
  endfacet
  facet normal -0.05006682 0.00455153 0.99873550
    outer loop
      vertex 5.33333 -1.06667 9.37639
      vertex 6.40000 -1.06667 9.42986
      vertex 6.40000 0.00000 9.42500
    endloop
  endfacet
  facet normal -0.05006682 0.00455153 0.99873550
    outer loop
      vertex 5.33333 -1.06667 9.37639
      vertex 6.40000 0.00000 9.42500
      vertex 5.33333 0.00000 9.37153
    endloop
  endfacet
  facet normal 0.05006682 -0.00455153 0.99873550
    outer loop
      vertex -6.40000 0.00000 9.42500
      vertex -5.33333 0.00000 9.37153
      vertex -5.33333 1.06667 9.37639
    endloop
  endfacet
  facet normal 0.05006682 -0.00455153 0.99873550
    outer loop
      vertex -6.40000 0.00000 9.42500
      vertex -5.33333 1.06667 9.37639
      vertex -6.40000 1.06667 9.42986
    endloop
  endfacet
  facet normal 0.04098074 -0.00455342 0.99914956
    outer loop
      vertex -5.33333 0.00000 9.37153
      vertex -4.26667 0.00000 9.32778
      vertex -4.26667 1.06667 9.33264
    endloop
  endfacet
  facet normal 0.04098074 -0.00455342 0.99914956
    outer loop
      vertex -5.33333 0.00000 9.37153
      vertex -4.26667 1.06667 9.33264
      vertex -5.33333 1.06667 9.37639
    endloop
  endfacet
  facet normal 0.03188449 -0.00455493 0.99948118
    outer loop
      vertex -4.26667 0.00000 9.32778
      vertex -3.20000 0.00000 9.29375
      vertex -3.20000 1.06667 9.29861
    endloop
  endfacet
  facet normal 0.03188449 -0.00455493 0.99948118
    outer loop
      vertex -4.26667 0.00000 9.32778
      vertex -3.20000 1.06667 9.29861
      vertex -4.26667 1.06667 9.33264
    endloop
  endfacet
  facet normal 0.02278031 -0.00455606 0.99973011
    outer loop
      vertex -3.20000 0.00000 9.29375
      vertex -2.13333 0.00000 9.26944
      vertex -2.13333 1.06667 9.27431
    endloop
  endfacet
  facet normal 0.02278031 -0.00455606 0.99973011
    outer loop
      vertex -3.20000 0.00000 9.29375
      vertex -2.13333 1.06667 9.27431
      vertex -3.20000 1.06667 9.29861
    endloop
  endfacet
  facet normal 0.01367046 -0.00455682 0.99989617
    outer loop
      vertex -2.13333 0.00000 9.26944
      vertex -1.06667 0.00000 9.25486
      vertex -1.06667 1.06667 9.25972
    endloop
  endfacet
  facet normal 0.01367046 -0.00455682 0.99989617
    outer loop
      vertex -2.13333 0.00000 9.26944
      vertex -1.06667 1.06667 9.25972
      vertex -2.13333 1.06667 9.27431
    endloop
  endfacet
  facet normal 0.00455720 -0.00455720 0.99997923
    outer loop
      vertex -1.06667 0.00000 9.25486
      vertex 0.00000 0.00000 9.25000
      vertex 0.00000 1.06667 9.25486
    endloop
  endfacet
  facet normal 0.00455720 -0.00455720 0.99997923
    outer loop
      vertex -1.06667 0.00000 9.25486
      vertex 0.00000 1.06667 9.25486
      vertex -1.06667 1.06667 9.25972
    endloop
  endfacet
  facet normal -0.00455720 -0.00455720 0.99997923
    outer loop
      vertex 0.00000 0.00000 9.25000
      vertex 1.06667 0.00000 9.25486
      vertex 1.06667 1.06667 9.25972
    endloop
  endfacet
  facet normal -0.00455720 -0.00455720 0.99997923
    outer loop
      vertex 0.00000 0.00000 9.25000
      vertex 1.06667 1.06667 9.25972
      vertex 0.00000 1.06667 9.25486
    endloop
  endfacet
  facet normal -0.01367046 -0.00455682 0.99989617
    outer loop
      vertex 1.06667 0.00000 9.25486
      vertex 2.13333 0.00000 9.26944
      vertex 2.13333 1.06667 9.27431
    endloop
  endfacet
  facet normal -0.01367046 -0.00455682 0.99989617
    outer loop
      vertex 1.06667 0.00000 9.25486
      vertex 2.13333 1.06667 9.27431
      vertex 1.06667 1.06667 9.25972
    endloop
  endfacet
  facet normal -0.02278031 -0.00455606 0.99973011
    outer loop
      vertex 2.13333 0.00000 9.26944
      vertex 3.20000 0.00000 9.29375
      vertex 3.20000 1.06667 9.29861
    endloop
  endfacet
  facet normal -0.02278031 -0.00455606 0.99973011
    outer loop
      vertex 2.13333 0.00000 9.26944
      vertex 3.20000 1.06667 9.29861
      vertex 2.13333 1.06667 9.27431
    endloop
  endfacet
  facet normal -0.03188449 -0.00455493 0.99948118
    outer loop
      vertex 3.20000 0.00000 9.29375
      vertex 4.26667 0.00000 9.32778
      vertex 4.26667 1.06667 9.33264
    endloop
  endfacet
  facet normal -0.03188449 -0.00455493 0.99948118
    outer loop
      vertex 3.20000 0.00000 9.29375
      vertex 4.26667 1.06667 9.33264
      vertex 3.20000 1.06667 9.29861
    endloop
  endfacet
  facet normal -0.04098074 -0.00455342 0.99914956
    outer loop
      vertex 4.26667 0.00000 9.32778
      vertex 5.33333 0.00000 9.37153
      vertex 5.33333 1.06667 9.37639
    endloop
  endfacet
  facet normal -0.04098074 -0.00455342 0.99914956
    outer loop
      vertex 4.26667 0.00000 9.32778
      vertex 5.33333 1.06667 9.37639
      vertex 4.26667 1.06667 9.33264
    endloop
  endfacet
  facet normal -0.05006682 -0.00455153 0.99873550
    outer loop
      vertex 5.33333 0.00000 9.37153
      vertex 6.40000 0.00000 9.42500
      vertex 6.40000 1.06667 9.42986
    endloop
  endfacet
  facet normal -0.05006682 -0.00455153 0.99873550
    outer loop
      vertex 5.33333 0.00000 9.37153
      vertex 6.40000 1.06667 9.42986
      vertex 5.33333 1.06667 9.37639
    endloop
  endfacet
  facet normal 0.05006267 -0.01365346 0.99865275
    outer loop
      vertex -6.40000 1.06667 9.42986
      vertex -5.33333 1.06667 9.37639
      vertex -5.33333 2.13333 9.39097
    endloop
  endfacet
  facet normal 0.05006267 -0.01365346 0.99865275
    outer loop
      vertex -6.40000 1.06667 9.42986
      vertex -5.33333 2.13333 9.39097
      vertex -6.40000 2.13333 9.44444
    endloop
  endfacet
  facet normal 0.04097735 -0.01365912 0.99906671
    outer loop
      vertex -5.33333 1.06667 9.37639
      vertex -4.26667 1.06667 9.33264
      vertex -4.26667 2.13333 9.34722
    endloop
  endfacet
  facet normal 0.04097735 -0.01365912 0.99906671
    outer loop
      vertex -5.33333 1.06667 9.37639
      vertex -4.26667 2.13333 9.34722
      vertex -5.33333 2.13333 9.39097
    endloop
  endfacet
  facet normal 0.03188185 -0.01366365 0.99939825
    outer loop
      vertex -4.26667 1.06667 9.33264
      vertex -3.20000 1.06667 9.29861
      vertex -3.20000 2.13333 9.31319
    endloop
  endfacet
  facet normal 0.03188185 -0.01366365 0.99939825
    outer loop
      vertex -4.26667 1.06667 9.33264
      vertex -3.20000 2.13333 9.31319
      vertex -4.26667 2.13333 9.34722
    endloop
  endfacet
  facet normal 0.02277842 -0.01366705 0.99964712
    outer loop
      vertex -3.20000 1.06667 9.29861
      vertex -2.13333 1.06667 9.27431
      vertex -2.13333 2.13333 9.28889
    endloop
  endfacet
  facet normal 0.02277842 -0.01366705 0.99964712
    outer loop
      vertex -3.20000 1.06667 9.29861
      vertex -2.13333 2.13333 9.28889
      vertex -3.20000 2.13333 9.31319
    endloop
  endfacet
  facet normal 0.01366932 -0.01366932 0.99981313
    outer loop
      vertex -2.13333 1.06667 9.27431
      vertex -1.06667 1.06667 9.25972
      vertex -1.06667 2.13333 9.27431
    endloop
  endfacet
  facet normal 0.01366932 -0.01366932 0.99981313
    outer loop
      vertex -2.13333 1.06667 9.27431
      vertex -1.06667 2.13333 9.27431
      vertex -2.13333 2.13333 9.28889
    endloop
  endfacet
  facet normal 0.00455682 -0.01367046 0.99989617
    outer loop
      vertex -1.06667 1.06667 9.25972
      vertex 0.00000 1.06667 9.25486
      vertex 0.00000 2.13333 9.26944
    endloop
  endfacet
  facet normal 0.00455682 -0.01367046 0.99989617
    outer loop
      vertex -1.06667 1.06667 9.25972
      vertex 0.00000 2.13333 9.26944
      vertex -1.06667 2.13333 9.27431
    endloop
  endfacet
  facet normal -0.00455682 -0.01367046 0.99989617
    outer loop
      vertex 0.00000 1.06667 9.25486
      vertex 1.06667 1.06667 9.25972
      vertex 1.06667 2.13333 9.27431
    endloop
  endfacet
  facet normal -0.00455682 -0.01367046 0.99989617
    outer loop
      vertex 0.00000 1.06667 9.25486
      vertex 1.06667 2.13333 9.27431
      vertex 0.00000 2.13333 9.26944
    endloop
  endfacet
  facet normal -0.01366932 -0.01366932 0.99981313
    outer loop
      vertex 1.06667 1.06667 9.25972
      vertex 2.13333 1.06667 9.27431
      vertex 2.13333 2.13333 9.28889
    endloop
  endfacet
  facet normal -0.01366932 -0.01366932 0.99981313
    outer loop
      vertex 1.06667 1.06667 9.25972
      vertex 2.13333 2.13333 9.28889
      vertex 1.06667 2.13333 9.27431
    endloop
  endfacet
  facet normal -0.02277842 -0.01366705 0.99964712
    outer loop
      vertex 2.13333 1.06667 9.27431
      vertex 3.20000 1.06667 9.29861
      vertex 3.20000 2.13333 9.31319
    endloop
  endfacet
  facet normal -0.02277842 -0.01366705 0.99964712
    outer loop
      vertex 2.13333 1.06667 9.27431
      vertex 3.20000 2.13333 9.31319
      vertex 2.13333 2.13333 9.28889
    endloop
  endfacet
  facet normal -0.03188185 -0.01366365 0.99939825
    outer loop
      vertex 3.20000 1.06667 9.29861
      vertex 4.26667 1.06667 9.33264
      vertex 4.26667 2.13333 9.34722
    endloop
  endfacet
  facet normal -0.03188185 -0.01366365 0.99939825
    outer loop
      vertex 3.20000 1.06667 9.29861
      vertex 4.26667 2.13333 9.34722
      vertex 3.20000 2.13333 9.31319
    endloop
  endfacet
  facet normal -0.04097735 -0.01365912 0.99906671
    outer loop
      vertex 4.26667 1.06667 9.33264
      vertex 5.33333 1.06667 9.37639
      vertex 5.33333 2.13333 9.39097
    endloop
  endfacet
  facet normal -0.04097735 -0.01365912 0.99906671
    outer loop
      vertex 4.26667 1.06667 9.33264
      vertex 5.33333 2.13333 9.39097
      vertex 4.26667 2.13333 9.34722
    endloop
  endfacet
  facet normal -0.05006267 -0.01365346 0.99865275
    outer loop
      vertex 5.33333 1.06667 9.37639
      vertex 6.40000 1.06667 9.42986
      vertex 6.40000 2.13333 9.44444
    endloop
  endfacet
  facet normal -0.05006267 -0.01365346 0.99865275
    outer loop
      vertex 5.33333 1.06667 9.37639
      vertex 6.40000 2.13333 9.44444
      vertex 5.33333 2.13333 9.39097
    endloop
  endfacet
  facet normal 0.05005438 -0.02275199 0.99848731
    outer loop
      vertex -6.40000 2.13333 9.44444
      vertex -5.33333 2.13333 9.39097
      vertex -5.33333 3.20000 9.41528
    endloop
  endfacet
  facet normal 0.05005438 -0.02275199 0.99848731
    outer loop
      vertex -6.40000 2.13333 9.44444
      vertex -5.33333 3.20000 9.41528
      vertex -6.40000 3.20000 9.46875
    endloop
  endfacet
  facet normal 0.04097055 -0.02276142 0.99890106
    outer loop
      vertex -5.33333 2.13333 9.39097
      vertex -4.26667 2.13333 9.34722
      vertex -4.26667 3.20000 9.37153
    endloop
  endfacet
  facet normal 0.04097055 -0.02276142 0.99890106
    outer loop
      vertex -5.33333 2.13333 9.39097
      vertex -4.26667 3.20000 9.37153
      vertex -5.33333 3.20000 9.41528
    endloop
  endfacet
  facet normal 0.03187656 -0.02276897 0.99923244
    outer loop
      vertex -4.26667 2.13333 9.34722
      vertex -3.20000 2.13333 9.31319
      vertex -3.20000 3.20000 9.33750
    endloop
  endfacet
  facet normal 0.03187656 -0.02276897 0.99923244
    outer loop
      vertex -4.26667 2.13333 9.34722
      vertex -3.20000 3.20000 9.33750
      vertex -4.26667 3.20000 9.37153
    endloop
  endfacet
  facet normal 0.02277464 -0.02277464 0.99948118
    outer loop
      vertex -3.20000 2.13333 9.31319
      vertex -2.13333 2.13333 9.28889
      vertex -2.13333 3.20000 9.31319
    endloop
  endfacet
  facet normal 0.02277464 -0.02277464 0.99948118
    outer loop
      vertex -3.20000 2.13333 9.31319
      vertex -2.13333 3.20000 9.31319
      vertex -3.20000 3.20000 9.33750
    endloop
  endfacet
  facet normal 0.01366705 -0.02277842 0.99964712
    outer loop
      vertex -2.13333 2.13333 9.28889
      vertex -1.06667 2.13333 9.27431
      vertex -1.06667 3.20000 9.29861
    endloop
  endfacet
  facet normal 0.01366705 -0.02277842 0.99964712
    outer loop
      vertex -2.13333 2.13333 9.28889
      vertex -1.06667 3.20000 9.29861
      vertex -2.13333 3.20000 9.31319
    endloop
  endfacet
  facet normal 0.00455606 -0.02278031 0.99973011
    outer loop
      vertex -1.06667 2.13333 9.27431
      vertex 0.00000 2.13333 9.26944
      vertex 0.00000 3.20000 9.29375
    endloop
  endfacet
  facet normal 0.00455606 -0.02278031 0.99973011
    outer loop
      vertex -1.06667 2.13333 9.27431
      vertex 0.00000 3.20000 9.29375
      vertex -1.06667 3.20000 9.29861
    endloop
  endfacet
  facet normal -0.00455606 -0.02278031 0.99973011
    outer loop
      vertex 0.00000 2.13333 9.26944
      vertex 1.06667 2.13333 9.27431
      vertex 1.06667 3.20000 9.29861
    endloop
  endfacet
  facet normal -0.00455606 -0.02278031 0.99973011
    outer loop
      vertex 0.00000 2.13333 9.26944
      vertex 1.06667 3.20000 9.29861
      vertex 0.00000 3.20000 9.29375
    endloop
  endfacet
  facet normal -0.01366705 -0.02277842 0.99964712
    outer loop
      vertex 1.06667 2.13333 9.27431
      vertex 2.13333 2.13333 9.28889
      vertex 2.13333 3.20000 9.31319
    endloop
  endfacet
  facet normal -0.01366705 -0.02277842 0.99964712
    outer loop
      vertex 1.06667 2.13333 9.27431
      vertex 2.13333 3.20000 9.31319
      vertex 1.06667 3.20000 9.29861
    endloop
  endfacet
  facet normal -0.02277464 -0.02277464 0.99948118
    outer loop
      vertex 2.13333 2.13333 9.28889
      vertex 3.20000 2.13333 9.31319
      vertex 3.20000 3.20000 9.33750
    endloop
  endfacet
  facet normal -0.02277464 -0.02277464 0.99948118
    outer loop
      vertex 2.13333 2.13333 9.28889
      vertex 3.20000 3.20000 9.33750
      vertex 2.13333 3.20000 9.31319
    endloop
  endfacet
  facet normal -0.03187656 -0.02276897 0.99923244
    outer loop
      vertex 3.20000 2.13333 9.31319
      vertex 4.26667 2.13333 9.34722
      vertex 4.26667 3.20000 9.37153
    endloop
  endfacet
  facet normal -0.03187656 -0.02276897 0.99923244
    outer loop
      vertex 3.20000 2.13333 9.31319
      vertex 4.26667 3.20000 9.37153
      vertex 3.20000 3.20000 9.33750
    endloop
  endfacet
  facet normal -0.04097055 -0.02276142 0.99890106
    outer loop
      vertex 4.26667 2.13333 9.34722
      vertex 5.33333 2.13333 9.39097
      vertex 5.33333 3.20000 9.41528
    endloop
  endfacet
  facet normal -0.04097055 -0.02276142 0.99890106
    outer loop
      vertex 4.26667 2.13333 9.34722
      vertex 5.33333 3.20000 9.41528
      vertex 4.26667 3.20000 9.37153
    endloop
  endfacet
  facet normal -0.05005438 -0.02275199 0.99848731
    outer loop
      vertex 5.33333 2.13333 9.39097
      vertex 6.40000 2.13333 9.44444
      vertex 6.40000 3.20000 9.46875
    endloop
  endfacet
  facet normal -0.05005438 -0.02275199 0.99848731
    outer loop
      vertex 5.33333 2.13333 9.39097
      vertex 6.40000 3.20000 9.46875
      vertex 5.33333 3.20000 9.41528
    endloop
  endfacet
  facet normal 0.05004194 -0.03184487 0.99823930
    outer loop
      vertex -6.40000 3.20000 9.46875
      vertex -5.33333 3.20000 9.41528
      vertex -5.33333 4.26667 9.44931
    endloop
  endfacet
  facet normal 0.05004194 -0.03184487 0.99823930
    outer loop
      vertex -6.40000 3.20000 9.46875
      vertex -5.33333 4.26667 9.44931
      vertex -6.40000 4.26667 9.50278
    endloop
  endfacet
  facet normal 0.04096037 -0.03185806 0.99865275
    outer loop
      vertex -5.33333 3.20000 9.41528
      vertex -4.26667 3.20000 9.37153
      vertex -4.26667 4.26667 9.40556
    endloop
  endfacet
  facet normal 0.04096037 -0.03185806 0.99865275
    outer loop
      vertex -5.33333 3.20000 9.41528
      vertex -4.26667 4.26667 9.40556
      vertex -5.33333 4.26667 9.44931
    endloop
  endfacet
  facet normal 0.03186863 -0.03186863 0.99898387
    outer loop
      vertex -4.26667 3.20000 9.37153
      vertex -3.20000 3.20000 9.33750
      vertex -3.20000 4.26667 9.37153
    endloop
  endfacet
  facet normal 0.03186863 -0.03186863 0.99898387
    outer loop
      vertex -4.26667 3.20000 9.37153
      vertex -3.20000 4.26667 9.37153
      vertex -4.26667 4.26667 9.40556
    endloop
  endfacet
  facet normal 0.02276897 -0.03187656 0.99923244
    outer loop
      vertex -3.20000 3.20000 9.33750
      vertex -2.13333 3.20000 9.31319
      vertex -2.13333 4.26667 9.34722
    endloop
  endfacet
  facet normal 0.02276897 -0.03187656 0.99923244
    outer loop
      vertex -3.20000 3.20000 9.33750
      vertex -2.13333 4.26667 9.34722
      vertex -3.20000 4.26667 9.37153
    endloop
  endfacet
  facet normal 0.01366365 -0.03188185 0.99939825
    outer loop
      vertex -2.13333 3.20000 9.31319
      vertex -1.06667 3.20000 9.29861
      vertex -1.06667 4.26667 9.33264
    endloop
  endfacet
  facet normal 0.01366365 -0.03188185 0.99939825
    outer loop
      vertex -2.13333 3.20000 9.31319
      vertex -1.06667 4.26667 9.33264
      vertex -2.13333 4.26667 9.34722
    endloop
  endfacet
  facet normal 0.00455493 -0.03188449 0.99948118
    outer loop
      vertex -1.06667 3.20000 9.29861
      vertex 0.00000 3.20000 9.29375
      vertex 0.00000 4.26667 9.32778
    endloop
  endfacet
  facet normal 0.00455493 -0.03188449 0.99948118
    outer loop
      vertex -1.06667 3.20000 9.29861
      vertex 0.00000 4.26667 9.32778
      vertex -1.06667 4.26667 9.33264
    endloop
  endfacet
  facet normal -0.00455493 -0.03188449 0.99948118
    outer loop
      vertex 0.00000 3.20000 9.29375
      vertex 1.06667 3.20000 9.29861
      vertex 1.06667 4.26667 9.33264
    endloop
  endfacet
  facet normal -0.00455493 -0.03188449 0.99948118
    outer loop
      vertex 0.00000 3.20000 9.29375
      vertex 1.06667 4.26667 9.33264
      vertex 0.00000 4.26667 9.32778
    endloop
  endfacet
  facet normal -0.01366365 -0.03188185 0.99939825
    outer loop
      vertex 1.06667 3.20000 9.29861
      vertex 2.13333 3.20000 9.31319
      vertex 2.13333 4.26667 9.34722
    endloop
  endfacet
  facet normal -0.01366365 -0.03188185 0.99939825
    outer loop
      vertex 1.06667 3.20000 9.29861
      vertex 2.13333 4.26667 9.34722
      vertex 1.06667 4.26667 9.33264
    endloop
  endfacet
  facet normal -0.02276897 -0.03187656 0.99923244
    outer loop
      vertex 2.13333 3.20000 9.31319
      vertex 3.20000 3.20000 9.33750
      vertex 3.20000 4.26667 9.37153
    endloop
  endfacet
  facet normal -0.02276897 -0.03187656 0.99923244
    outer loop
      vertex 2.13333 3.20000 9.31319
      vertex 3.20000 4.26667 9.37153
      vertex 2.13333 4.26667 9.34722
    endloop
  endfacet
  facet normal -0.03186863 -0.03186863 0.99898387
    outer loop
      vertex 3.20000 3.20000 9.33750
      vertex 4.26667 3.20000 9.37153
      vertex 4.26667 4.26667 9.40556
    endloop
  endfacet
  facet normal -0.03186863 -0.03186863 0.99898387
    outer loop
      vertex 3.20000 3.20000 9.33750
      vertex 4.26667 4.26667 9.40556
      vertex 3.20000 4.26667 9.37153
    endloop
  endfacet
  facet normal -0.04096037 -0.03185806 0.99865275
    outer loop
      vertex 4.26667 3.20000 9.37153
      vertex 5.33333 3.20000 9.41528
      vertex 5.33333 4.26667 9.44931
    endloop
  endfacet
  facet normal -0.04096037 -0.03185806 0.99865275
    outer loop
      vertex 4.26667 3.20000 9.37153
      vertex 5.33333 4.26667 9.44931
      vertex 4.26667 4.26667 9.40556
    endloop
  endfacet
  facet normal -0.05004194 -0.03184487 0.99823930
    outer loop
      vertex 5.33333 3.20000 9.41528
      vertex 6.40000 3.20000 9.46875
      vertex 6.40000 4.26667 9.50278
    endloop
  endfacet
  facet normal -0.05004194 -0.03184487 0.99823930
    outer loop
      vertex 5.33333 3.20000 9.41528
      vertex 6.40000 4.26667 9.50278
      vertex 5.33333 4.26667 9.44931
    endloop
  endfacet
  facet normal 0.05002538 -0.04092986 0.99790892
    outer loop
      vertex -6.40000 4.26667 9.50278
      vertex -5.33333 4.26667 9.44931
      vertex -5.33333 5.33333 9.49306
    endloop
  endfacet
  facet normal 0.05002538 -0.04092986 0.99790892
    outer loop
      vertex -6.40000 4.26667 9.50278
      vertex -5.33333 5.33333 9.49306
      vertex -6.40000 5.33333 9.54653
    endloop
  endfacet
  facet normal 0.04094680 -0.04094680 0.99832195
    outer loop
      vertex -5.33333 4.26667 9.44931
      vertex -4.26667 4.26667 9.40556
      vertex -4.26667 5.33333 9.44931
    endloop
  endfacet
  facet normal 0.04094680 -0.04094680 0.99832195
    outer loop
      vertex -5.33333 4.26667 9.44931
      vertex -4.26667 5.33333 9.44931
      vertex -5.33333 5.33333 9.49306
    endloop
  endfacet
  facet normal 0.03185806 -0.04096037 0.99865275
    outer loop
      vertex -4.26667 4.26667 9.40556
      vertex -3.20000 4.26667 9.37153
      vertex -3.20000 5.33333 9.41528
    endloop
  endfacet
  facet normal 0.03185806 -0.04096037 0.99865275
    outer loop
      vertex -4.26667 4.26667 9.40556
      vertex -3.20000 5.33333 9.41528
      vertex -4.26667 5.33333 9.44931
    endloop
  endfacet
  facet normal 0.02276142 -0.04097055 0.99890106
    outer loop
      vertex -3.20000 4.26667 9.37153
      vertex -2.13333 4.26667 9.34722
      vertex -2.13333 5.33333 9.39097
    endloop
  endfacet
  facet normal 0.02276142 -0.04097055 0.99890106
    outer loop
      vertex -3.20000 4.26667 9.37153
      vertex -2.13333 5.33333 9.39097
      vertex -3.20000 5.33333 9.41528
    endloop
  endfacet
  facet normal 0.01365912 -0.04097735 0.99906671
    outer loop
      vertex -2.13333 4.26667 9.34722
      vertex -1.06667 4.26667 9.33264
      vertex -1.06667 5.33333 9.37639
    endloop
  endfacet
  facet normal 0.01365912 -0.04097735 0.99906671
    outer loop
      vertex -2.13333 4.26667 9.34722
      vertex -1.06667 5.33333 9.37639
      vertex -2.13333 5.33333 9.39097
    endloop
  endfacet
  facet normal 0.00455342 -0.04098074 0.99914956
    outer loop
      vertex -1.06667 4.26667 9.33264
      vertex 0.00000 4.26667 9.32778
      vertex 0.00000 5.33333 9.37153
    endloop
  endfacet
  facet normal 0.00455342 -0.04098074 0.99914956
    outer loop
      vertex -1.06667 4.26667 9.33264
      vertex 0.00000 5.33333 9.37153
      vertex -1.06667 5.33333 9.37639
    endloop
  endfacet
  facet normal -0.00455342 -0.04098074 0.99914956
    outer loop
      vertex 0.00000 4.26667 9.32778
      vertex 1.06667 4.26667 9.33264
      vertex 1.06667 5.33333 9.37639
    endloop
  endfacet
  facet normal -0.00455342 -0.04098074 0.99914956
    outer loop
      vertex 0.00000 4.26667 9.32778
      vertex 1.06667 5.33333 9.37639
      vertex 0.00000 5.33333 9.37153
    endloop
  endfacet
  facet normal -0.01365912 -0.04097735 0.99906671
    outer loop
      vertex 1.06667 4.26667 9.33264
      vertex 2.13333 4.26667 9.34722
      vertex 2.13333 5.33333 9.39097
    endloop
  endfacet
  facet normal -0.01365912 -0.04097735 0.99906671
    outer loop
      vertex 1.06667 4.26667 9.33264
      vertex 2.13333 5.33333 9.39097
      vertex 1.06667 5.33333 9.37639
    endloop
  endfacet
  facet normal -0.02276142 -0.04097055 0.99890106
    outer loop
      vertex 2.13333 4.26667 9.34722
      vertex 3.20000 4.26667 9.37153
      vertex 3.20000 5.33333 9.41528
    endloop
  endfacet
  facet normal -0.02276142 -0.04097055 0.99890106
    outer loop
      vertex 2.13333 4.26667 9.34722
      vertex 3.20000 5.33333 9.41528
      vertex 2.13333 5.33333 9.39097
    endloop
  endfacet
  facet normal -0.03185806 -0.04096037 0.99865275
    outer loop
      vertex 3.20000 4.26667 9.37153
      vertex 4.26667 4.26667 9.40556
      vertex 4.26667 5.33333 9.44931
    endloop
  endfacet
  facet normal -0.03185806 -0.04096037 0.99865275
    outer loop
      vertex 3.20000 4.26667 9.37153
      vertex 4.26667 5.33333 9.44931
      vertex 3.20000 5.33333 9.41528
    endloop
  endfacet
  facet normal -0.04094680 -0.04094680 0.99832195
    outer loop
      vertex 4.26667 4.26667 9.40556
      vertex 5.33333 4.26667 9.44931
      vertex 5.33333 5.33333 9.49306
    endloop
  endfacet
  facet normal -0.04094680 -0.04094680 0.99832195
    outer loop
      vertex 4.26667 4.26667 9.40556
      vertex 5.33333 5.33333 9.49306
      vertex 4.26667 5.33333 9.44931
    endloop
  endfacet
  facet normal -0.05002538 -0.04092986 0.99790892
    outer loop
      vertex 5.33333 4.26667 9.44931
      vertex 6.40000 4.26667 9.50278
      vertex 6.40000 5.33333 9.54653
    endloop
  endfacet
  facet normal -0.05002538 -0.04092986 0.99790892
    outer loop
      vertex 5.33333 4.26667 9.44931
      vertex 6.40000 5.33333 9.54653
      vertex 5.33333 5.33333 9.49306
    endloop
  endfacet
  facet normal 0.05000470 -0.05000470 0.99749640
    outer loop
      vertex -6.40000 5.33333 9.54653
      vertex -5.33333 5.33333 9.49306
      vertex -5.33333 6.40000 9.54653
    endloop
  endfacet
  facet normal 0.05000470 -0.05000470 0.99749640
    outer loop
      vertex -6.40000 5.33333 9.54653
      vertex -5.33333 6.40000 9.54653
      vertex -6.40000 6.40000 9.60000
    endloop
  endfacet
  facet normal 0.04092986 -0.05002538 0.99790892
    outer loop
      vertex -5.33333 5.33333 9.49306
      vertex -4.26667 5.33333 9.44931
      vertex -4.26667 6.40000 9.50278
    endloop
  endfacet
  facet normal 0.04092986 -0.05002538 0.99790892
    outer loop
      vertex -5.33333 5.33333 9.49306
      vertex -4.26667 6.40000 9.50278
      vertex -5.33333 6.40000 9.54653
    endloop
  endfacet
  facet normal 0.03184487 -0.05004194 0.99823930
    outer loop
      vertex -4.26667 5.33333 9.44931
      vertex -3.20000 5.33333 9.41528
      vertex -3.20000 6.40000 9.46875
    endloop
  endfacet
  facet normal 0.03184487 -0.05004194 0.99823930
    outer loop
      vertex -4.26667 5.33333 9.44931
      vertex -3.20000 6.40000 9.46875
      vertex -4.26667 6.40000 9.50278
    endloop
  endfacet
  facet normal 0.02275199 -0.05005438 0.99848731
    outer loop
      vertex -3.20000 5.33333 9.41528
      vertex -2.13333 5.33333 9.39097
      vertex -2.13333 6.40000 9.44444
    endloop
  endfacet
  facet normal 0.02275199 -0.05005438 0.99848731
    outer loop
      vertex -3.20000 5.33333 9.41528
      vertex -2.13333 6.40000 9.44444
      vertex -3.20000 6.40000 9.46875
    endloop
  endfacet
  facet normal 0.01365346 -0.05006267 0.99865275
    outer loop
      vertex -2.13333 5.33333 9.39097
      vertex -1.06667 5.33333 9.37639
      vertex -1.06667 6.40000 9.42986
    endloop
  endfacet
  facet normal 0.01365346 -0.05006267 0.99865275
    outer loop
      vertex -2.13333 5.33333 9.39097
      vertex -1.06667 6.40000 9.42986
      vertex -2.13333 6.40000 9.44444
    endloop
  endfacet
  facet normal 0.00455153 -0.05006682 0.99873550
    outer loop
      vertex -1.06667 5.33333 9.37639
      vertex 0.00000 5.33333 9.37153
      vertex 0.00000 6.40000 9.42500
    endloop
  endfacet
  facet normal 0.00455153 -0.05006682 0.99873550
    outer loop
      vertex -1.06667 5.33333 9.37639
      vertex 0.00000 6.40000 9.42500
      vertex -1.06667 6.40000 9.42986
    endloop
  endfacet
  facet normal -0.00455153 -0.05006682 0.99873550
    outer loop
      vertex 0.00000 5.33333 9.37153
      vertex 1.06667 5.33333 9.37639
      vertex 1.06667 6.40000 9.42986
    endloop
  endfacet
  facet normal -0.00455153 -0.05006682 0.99873550
    outer loop
      vertex 0.00000 5.33333 9.37153
      vertex 1.06667 6.40000 9.42986
      vertex 0.00000 6.40000 9.42500
    endloop
  endfacet
  facet normal -0.01365346 -0.05006267 0.99865275
    outer loop
      vertex 1.06667 5.33333 9.37639
      vertex 2.13333 5.33333 9.39097
      vertex 2.13333 6.40000 9.44444
    endloop
  endfacet
  facet normal -0.01365346 -0.05006267 0.99865275
    outer loop
      vertex 1.06667 5.33333 9.37639
      vertex 2.13333 6.40000 9.44444
      vertex 1.06667 6.40000 9.42986
    endloop
  endfacet
  facet normal -0.02275199 -0.05005438 0.99848731
    outer loop
      vertex 2.13333 5.33333 9.39097
      vertex 3.20000 5.33333 9.41528
      vertex 3.20000 6.40000 9.46875
    endloop
  endfacet
  facet normal -0.02275199 -0.05005438 0.99848731
    outer loop
      vertex 2.13333 5.33333 9.39097
      vertex 3.20000 6.40000 9.46875
      vertex 2.13333 6.40000 9.44444
    endloop
  endfacet
  facet normal -0.03184487 -0.05004194 0.99823930
    outer loop
      vertex 3.20000 5.33333 9.41528
      vertex 4.26667 5.33333 9.44931
      vertex 4.26667 6.40000 9.50278
    endloop
  endfacet
  facet normal -0.03184487 -0.05004194 0.99823930
    outer loop
      vertex 3.20000 5.33333 9.41528
      vertex 4.26667 6.40000 9.50278
      vertex 3.20000 6.40000 9.46875
    endloop
  endfacet
  facet normal -0.04092986 -0.05002538 0.99790892
    outer loop
      vertex 4.26667 5.33333 9.44931
      vertex 5.33333 5.33333 9.49306
      vertex 5.33333 6.40000 9.54653
    endloop
  endfacet
  facet normal -0.04092986 -0.05002538 0.99790892
    outer loop
      vertex 4.26667 5.33333 9.44931
      vertex 5.33333 6.40000 9.54653
      vertex 4.26667 6.40000 9.50278
    endloop
  endfacet
  facet normal -0.05000470 -0.05000470 0.99749640
    outer loop
      vertex 5.33333 5.33333 9.49306
      vertex 6.40000 5.33333 9.54653
      vertex 6.40000 6.40000 9.60000
    endloop
  endfacet
  facet normal -0.05000470 -0.05000470 0.99749640
    outer loop
      vertex 5.33333 5.33333 9.49306
      vertex 6.40000 6.40000 9.60000
      vertex 5.33333 6.40000 9.54653
    endloop
  endfacet
  facet normal 0.00000000 0.94366713 -0.33089627
    outer loop
      vertex 7.85000 -7.85000 0.25000
      vertex -7.85000 -7.85000 0.25000
      vertex -5.15000 -5.15000 7.95000
    endloop
  endfacet
  facet normal 0.00000000 0.94366713 -0.33089627
    outer loop
      vertex 7.85000 -7.85000 0.25000
      vertex -5.15000 -5.15000 7.95000
      vertex 5.15000 -5.15000 7.95000
    endloop
  endfacet
  facet normal -0.94366713 -0.00000000 -0.33089627
    outer loop
      vertex 7.85000 7.85000 0.25000
      vertex 7.85000 -7.85000 0.25000
      vertex 5.15000 -5.15000 7.95000
    endloop
  endfacet
  facet normal -0.94366713 0.00000000 -0.33089627
    outer loop
      vertex 7.85000 7.85000 0.25000
      vertex 5.15000 -5.15000 7.95000
      vertex 5.15000 5.15000 7.95000
    endloop
  endfacet
  facet normal 0.00000000 -0.94366713 -0.33089627
    outer loop
      vertex -7.85000 7.85000 0.25000
      vertex 7.85000 7.85000 0.25000
      vertex 5.15000 5.15000 7.95000
    endloop
  endfacet
  facet normal 0.00000000 -0.94366713 -0.33089627
    outer loop
      vertex -7.85000 7.85000 0.25000
      vertex 5.15000 5.15000 7.95000
      vertex -5.15000 5.15000 7.95000
    endloop
  endfacet
  facet normal 0.94366713 0.00000000 -0.33089627
    outer loop
      vertex -7.85000 -7.85000 0.25000
      vertex -7.85000 7.85000 0.25000
      vertex -5.15000 5.15000 7.95000
    endloop
  endfacet
  facet normal 0.94366713 0.00000000 -0.33089627
    outer loop
      vertex -7.85000 -7.85000 0.25000
      vertex -5.15000 5.15000 7.95000
      vertex -5.15000 -5.15000 7.95000
    endloop
  endfacet
  facet normal 0.00000000 0.00000000 -1.00000000
    outer loop
      vertex -5.15000 -5.15000 7.95000
      vertex -3.70000 -3.70000 7.95000
      vertex 3.70000 -3.70000 7.95000
    endloop
  endfacet
  facet normal 0.00000000 0.00000000 -1.00000000
    outer loop
      vertex -5.15000 -5.15000 7.95000
      vertex 3.70000 -3.70000 7.95000
      vertex 5.15000 -5.15000 7.95000
    endloop
  endfacet
  facet normal 0.00000000 0.00000000 -1.00000000
    outer loop
      vertex 5.15000 -5.15000 7.95000
      vertex 3.70000 -3.70000 7.95000
      vertex 3.70000 3.70000 7.95000
    endloop
  endfacet
  facet normal 0.00000000 0.00000000 -1.00000000
    outer loop
      vertex 5.15000 -5.15000 7.95000
      vertex 3.70000 3.70000 7.95000
      vertex 5.15000 5.15000 7.95000
    endloop
  endfacet
  facet normal 0.00000000 0.00000000 -1.00000000
    outer loop
      vertex 5.15000 5.15000 7.95000
      vertex 3.70000 3.70000 7.95000
      vertex -3.70000 3.70000 7.95000
    endloop
  endfacet
  facet normal -0.00000000 0.00000000 -1.00000000
    outer loop
      vertex 5.15000 5.15000 7.95000
      vertex -3.70000 3.70000 7.95000
      vertex -5.15000 5.15000 7.95000
    endloop
  endfacet
  facet normal 0.00000000 0.00000000 -1.00000000
    outer loop
      vertex -5.15000 5.15000 7.95000
      vertex -3.70000 3.70000 7.95000
      vertex -3.70000 -3.70000 7.95000
    endloop
  endfacet
  facet normal 0.00000000 0.00000000 -1.00000000
    outer loop
      vertex -5.15000 5.15000 7.95000
      vertex -3.70000 -3.70000 7.95000
      vertex -5.15000 -5.15000 7.95000
    endloop
  endfacet
  facet normal -0.00000000 1.00000000 0.00000000
    outer loop
      vertex -3.70000 -3.70000 7.95000
      vertex 3.70000 -3.70000 7.95000
      vertex 3.70000 -3.70000 5.75000
    endloop
  endfacet
  facet normal 0.00000000 1.00000000 0.00000000
    outer loop
      vertex -3.70000 -3.70000 7.95000
      vertex 3.70000 -3.70000 5.75000
      vertex -3.70000 -3.70000 5.75000
    endloop
  endfacet
  facet normal -1.00000000 0.00000000 0.00000000
    outer loop
      vertex 3.70000 -3.70000 7.95000
      vertex 3.70000 3.70000 7.95000
      vertex 3.70000 3.70000 5.75000
    endloop
  endfacet
  facet normal -1.00000000 0.00000000 0.00000000
    outer loop
      vertex 3.70000 -3.70000 7.95000
      vertex 3.70000 3.70000 5.75000
      vertex 3.70000 -3.70000 5.75000
    endloop
  endfacet
  facet normal -0.00000000 -1.00000000 0.00000000
    outer loop
      vertex 3.70000 3.70000 7.95000
      vertex -3.70000 3.70000 7.95000
      vertex -3.70000 3.70000 5.75000
    endloop
  endfacet
  facet normal 0.00000000 -1.00000000 -0.00000000
    outer loop
      vertex 3.70000 3.70000 7.95000
      vertex -3.70000 3.70000 5.75000
      vertex 3.70000 3.70000 5.75000
    endloop
  endfacet
  facet normal 1.00000000 0.00000000 0.00000000
    outer loop
      vertex -3.70000 3.70000 7.95000
      vertex -3.70000 -3.70000 7.95000
      vertex -3.70000 -3.70000 5.75000
    endloop
  endfacet
  facet normal 1.00000000 0.00000000 0.00000000
    outer loop
      vertex -3.70000 3.70000 7.95000
      vertex -3.70000 -3.70000 5.75000
      vertex -3.70000 3.70000 5.75000
    endloop
  endfacet
  facet normal 0.00000000 -0.19611614 0.98058068
    outer loop
      vertex -9.10000 -9.10000 0.00000
      vertex 9.10000 -9.10000 0.00000
      vertex 7.85000 -7.85000 0.25000
    endloop
  endfacet
  facet normal 0.00000000 -0.19611614 0.98058068
    outer loop
      vertex -9.10000 -9.10000 0.00000
      vertex 7.85000 -7.85000 0.25000
      vertex -7.85000 -7.85000 0.25000
    endloop
  endfacet
  facet normal 0.19611614 -0.00000000 0.98058068
    outer loop
      vertex 9.10000 -9.10000 0.00000
      vertex 9.10000 9.10000 0.00000
      vertex 7.85000 7.85000 0.25000
    endloop
  endfacet
  facet normal 0.19611614 0.00000000 0.98058068
    outer loop
      vertex 9.10000 -9.10000 0.00000
      vertex 7.85000 7.85000 0.25000
      vertex 7.85000 -7.85000 0.25000
    endloop
  endfacet
  facet normal 0.00000000 0.19611614 0.98058068
    outer loop
      vertex 9.10000 9.10000 0.00000
      vertex -9.10000 9.10000 0.00000
      vertex -7.85000 7.85000 0.25000
    endloop
  endfacet
  facet normal 0.00000000 0.19611614 0.98058068
    outer loop
      vertex 9.10000 9.10000 0.00000
      vertex -7.85000 7.85000 0.25000
      vertex 7.85000 7.85000 0.25000
    endloop
  endfacet
  facet normal -0.19611614 0.00000000 0.98058068
    outer loop
      vertex -9.10000 9.10000 0.00000
      vertex -9.10000 -9.10000 0.00000
      vertex -7.85000 -7.85000 0.25000
    endloop
  endfacet
  facet normal -0.19611614 0.00000000 0.98058068
    outer loop
      vertex -9.10000 9.10000 0.00000
      vertex -7.85000 -7.85000 0.25000
      vertex -7.85000 7.85000 0.25000
    endloop
  endfacet
endsolid wood_body
