solid resin_insert
  facet normal 0.00000000 0.00000000 -1.00000000
    outer loop
      vertex -3.55000 -3.55000 5.75000
      vertex -3.55000 3.55000 5.75000
      vertex 3.55000 3.55000 5.75000
    endloop
  endfacet
  facet normal 0.00000000 0.00000000 -1.00000000
    outer loop
      vertex -3.55000 -3.55000 5.75000
      vertex 3.55000 3.55000 5.75000
      vertex 3.55000 -3.55000 5.75000
    endloop
  endfacet
  facet normal 0.00000000 0.00000000 1.00000000
    outer loop
      vertex -3.55000 -3.55000 7.80000
      vertex 3.55000 -3.55000 7.80000
      vertex 3.55000 3.55000 7.80000
    endloop
  endfacet
  facet normal 0.00000000 0.00000000 1.00000000
    outer loop
      vertex -3.55000 -3.55000 7.80000
      vertex 3.55000 3.55000 7.80000
      vertex -3.55000 3.55000 7.80000
    endloop
  endfacet
  facet normal 0.00000000 -1.00000000 0.00000000
    outer loop
      vertex -3.55000 -3.55000 5.75000
      vertex 3.55000 -3.55000 5.75000
      vertex 3.55000 -3.55000 7.80000
    endloop
  endfacet
  facet normal 0.00000000 -1.00000000 0.00000000
    outer loop
      vertex -3.55000 -3.55000 5.75000
      vertex 3.55000 -3.55000 7.80000
      vertex -3.55000 -3.55000 7.80000
    endloop
  endfacet
  facet normal 1.00000000 0.00000000 0.00000000
    outer loop
      vertex 3.55000 -3.55000 5.75000
      vertex 3.55000 3.55000 5.75000
      vertex 3.55000 3.55000 7.80000
    endloop
  endfacet
  facet normal 1.00000000 0.00000000 0.00000000
    outer loop
      vertex 3.55000 -3.55000 5.75000
      vertex 3.55000 3.55000 7.80000
      vertex 3.55000 -3.55000 7.80000
    endloop
  endfacet
  facet normal 0.00000000 1.00000000 0.00000000
    outer loop
      vertex 3.55000 3.55000 5.75000
      vertex -3.55000 3.55000 5.75000
      vertex -3.55000 3.55000 7.80000
    endloop
  endfacet
  facet normal 0.00000000 1.00000000 -0.00000000
    outer loop
      vertex 3.55000 3.55000 5.75000
      vertex -3.55000 3.55000 7.80000
      vertex 3.55000 3.55000 7.80000
    endloop
  endfacet
  facet normal -1.00000000 0.00000000 0.00000000
    outer loop
      vertex -3.55000 3.55000 5.75000
      vertex -3.55000 -3.55000 5.75000
      vertex -3.55000 -3.55000 7.80000
    endloop
  endfacet
  facet normal -1.00000000 0.00000000 0.00000000
    outer loop
      vertex -3.55000 3.55000 5.75000
      vertex -3.55000 -3.55000 7.80000
      vertex -3.55000 3.55000 7.80000
    endloop
  endfacet
  facet normal 0.00000000 0.00000000 -1.00000000
    outer loop
      vertex -3.00000 -3.00000 1.75000
      vertex -3.00000 -0.66000 1.75000
      vertex -0.66000 -0.66000 1.75000
    endloop
  endfacet
  facet normal 0.00000000 0.00000000 -1.00000000
    outer loop
      vertex -3.00000 -3.00000 1.75000
      vertex -0.66000 -0.66000 1.75000
      vertex -0.66000 -3.00000 1.75000
    endloop
  endfacet
  facet normal 0.00000000 0.00000000 1.00000000
    outer loop
      vertex -3.00000 -3.00000 5.90000
      vertex -0.66000 -3.00000 5.90000
      vertex -0.66000 -0.66000 5.90000
    endloop
  endfacet
  facet normal 0.00000000 0.00000000 1.00000000
    outer loop
      vertex -3.00000 -3.00000 5.90000
      vertex -0.66000 -0.66000 5.90000
      vertex -3.00000 -0.66000 5.90000
    endloop
  endfacet
  facet normal 0.00000000 -1.00000000 0.00000000
    outer loop
      vertex -3.00000 -3.00000 1.75000
      vertex -0.66000 -3.00000 1.75000
      vertex -0.66000 -3.00000 5.90000
    endloop
  endfacet
  facet normal 0.00000000 -1.00000000 0.00000000
    outer loop
      vertex -3.00000 -3.00000 1.75000
      vertex -0.66000 -3.00000 5.90000
      vertex -3.00000 -3.00000 5.90000
    endloop
  endfacet
  facet normal 1.00000000 0.00000000 0.00000000
    outer loop
      vertex -0.66000 -3.00000 1.75000
      vertex -0.66000 -0.66000 1.75000
      vertex -0.66000 -0.66000 5.90000
    endloop
  endfacet
  facet normal 1.00000000 0.00000000 0.00000000
    outer loop
      vertex -0.66000 -3.00000 1.75000
      vertex -0.66000 -0.66000 5.90000
      vertex -0.66000 -3.00000 5.90000
    endloop
  endfacet
  facet normal 0.00000000 1.00000000 0.00000000
    outer loop
      vertex -0.66000 -0.66000 1.75000
      vertex -3.00000 -0.66000 1.75000
      vertex -3.00000 -0.66000 5.90000
    endloop
  endfacet
  facet normal 0.00000000 1.00000000 -0.00000000
    outer loop
      vertex -0.66000 -0.66000 1.75000
      vertex -3.00000 -0.66000 5.90000
      vertex -0.66000 -0.66000 5.90000
    endloop
  endfacet
  facet normal -1.00000000 0.00000000 0.00000000
    outer loop
      vertex -3.00000 -0.66000 1.75000
      vertex -3.00000 -3.00000 1.75000
      vertex -3.00000 -3.00000 5.90000
    endloop
  endfacet
  facet normal -1.00000000 0.00000000 0.00000000
    outer loop
      vertex -3.00000 -0.66000 1.75000
      vertex -3.00000 -3.00000 5.90000
      vertex -3.00000 -0.66000 5.90000
    endloop
  endfacet
  facet normal 0.00000000 0.00000000 -1.00000000
    outer loop
      vertex -3.00000 0.66000 1.75000
      vertex -3.00000 3.00000 1.75000
      vertex -0.66000 3.00000 1.75000
    endloop
  endfacet
  facet normal 0.00000000 0.00000000 -1.00000000
    outer loop
      vertex -3.00000 0.66000 1.75000
      vertex -0.66000 3.00000 1.75000
      vertex -0.66000 0.66000 1.75000
    endloop
  endfacet
  facet normal 0.00000000 0.00000000 1.00000000
    outer loop
      vertex -3.00000 0.66000 5.90000
      vertex -0.66000 0.66000 5.90000
      vertex -0.66000 3.00000 5.90000
    endloop
  endfacet
  facet normal 0.00000000 0.00000000 1.00000000
    outer loop
      vertex -3.00000 0.66000 5.90000
      vertex -0.66000 3.00000 5.90000
      vertex -3.00000 3.00000 5.90000
    endloop
  endfacet
  facet normal 0.00000000 -1.00000000 0.00000000
    outer loop
      vertex -3.00000 0.66000 1.75000
      vertex -0.66000 0.66000 1.75000
      vertex -0.66000 0.66000 5.90000
    endloop
  endfacet
  facet normal 0.00000000 -1.00000000 0.00000000
    outer loop
      vertex -3.00000 0.66000 1.75000
      vertex -0.66000 0.66000 5.90000
      vertex -3.00000 0.66000 5.90000
    endloop
  endfacet
  facet normal 1.00000000 0.00000000 0.00000000
    outer loop
      vertex -0.66000 0.66000 1.75000
      vertex -0.66000 3.00000 1.75000
      vertex -0.66000 3.00000 5.90000
    endloop
  endfacet
  facet normal 1.00000000 0.00000000 0.00000000
    outer loop
      vertex -0.66000 0.66000 1.75000
      vertex -0.66000 3.00000 5.90000
      vertex -0.66000 0.66000 5.90000
    endloop
  endfacet
  facet normal 0.00000000 1.00000000 0.00000000
    outer loop
      vertex -0.66000 3.00000 1.75000
      vertex -3.00000 3.00000 1.75000
      vertex -3.00000 3.00000 5.90000
    endloop
  endfacet
  facet normal 0.00000000 1.00000000 -0.00000000
    outer loop
      vertex -0.66000 3.00000 1.75000
      vertex -3.00000 3.00000 5.90000
      vertex -0.66000 3.00000 5.90000
    endloop
  endfacet
  facet normal -1.00000000 0.00000000 0.00000000
    outer loop
      vertex -3.00000 3.00000 1.75000
      vertex -3.00000 0.66000 1.75000
      vertex -3.00000 0.66000 5.90000
    endloop
  endfacet
  facet normal -1.00000000 0.00000000 0.00000000
    outer loop
      vertex -3.00000 3.00000 1.75000
      vertex -3.00000 0.66000 5.90000
      vertex -3.00000 3.00000 5.90000
    endloop
  endfacet
  facet normal 0.00000000 0.00000000 -1.00000000
    outer loop
      vertex 0.66000 -3.00000 1.75000
      vertex 0.66000 -0.66000 1.75000
      vertex 3.00000 -0.66000 1.75000
    endloop
  endfacet
  facet normal 0.00000000 0.00000000 -1.00000000
    outer loop
      vertex 0.66000 -3.00000 1.75000
      vertex 3.00000 -0.66000 1.75000
      vertex 3.00000 -3.00000 1.75000
    endloop
  endfacet
  facet normal 0.00000000 0.00000000 1.00000000
    outer loop
      vertex 0.66000 -3.00000 5.90000
      vertex 3.00000 -3.00000 5.90000
      vertex 3.00000 -0.66000 5.90000
    endloop
  endfacet
  facet normal 0.00000000 0.00000000 1.00000000
    outer loop
      vertex 0.66000 -3.00000 5.90000
      vertex 3.00000 -0.66000 5.90000
      vertex 0.66000 -0.66000 5.90000
    endloop
  endfacet
  facet normal 0.00000000 -1.00000000 0.00000000
    outer loop
      vertex 0.66000 -3.00000 1.75000
      vertex 3.00000 -3.00000 1.75000
      vertex 3.00000 -3.00000 5.90000
    endloop
  endfacet
  facet normal 0.00000000 -1.00000000 0.00000000
    outer loop
      vertex 0.66000 -3.00000 1.75000
      vertex 3.00000 -3.00000 5.90000
      vertex 0.66000 -3.00000 5.90000
    endloop
  endfacet
  facet normal 1.00000000 0.00000000 0.00000000
    outer loop
      vertex 3.00000 -3.00000 1.75000
      vertex 3.00000 -0.66000 1.75000
      vertex 3.00000 -0.66000 5.90000
    endloop
  endfacet
  facet normal 1.00000000 0.00000000 0.00000000
    outer loop
      vertex 3.00000 -3.00000 1.75000
      vertex 3.00000 -0.66000 5.90000
      vertex 3.00000 -3.00000 5.90000
    endloop
  endfacet
  facet normal 0.00000000 1.00000000 0.00000000
    outer loop
      vertex 3.00000 -0.66000 1.75000
      vertex 0.66000 -0.66000 1.75000
      vertex 0.66000 -0.66000 5.90000
    endloop
  endfacet
  facet normal 0.00000000 1.00000000 -0.00000000
    outer loop
      vertex 3.00000 -0.66000 1.75000
      vertex 0.66000 -0.66000 5.90000
      vertex 3.00000 -0.66000 5.90000
    endloop
  endfacet
  facet normal -1.00000000 0.00000000 0.00000000
    outer loop
      vertex 0.66000 -0.66000 1.75000
      vertex 0.66000 -3.00000 1.75000
      vertex 0.66000 -3.00000 5.90000
    endloop
  endfacet
  facet normal -1.00000000 0.00000000 0.00000000
    outer loop
      vertex 0.66000 -0.66000 1.75000
      vertex 0.66000 -3.00000 5.90000
      vertex 0.66000 -0.66000 5.90000
    endloop
  endfacet
  facet normal 0.00000000 0.00000000 -1.00000000
    outer loop
      vertex 0.66000 0.66000 1.75000
      vertex 0.66000 3.00000 1.75000
      vertex 3.00000 3.00000 1.75000
    endloop
  endfacet
  facet normal 0.00000000 0.00000000 -1.00000000
    outer loop
      vertex 0.66000 0.66000 1.75000
      vertex 3.00000 3.00000 1.75000
      vertex 3.00000 0.66000 1.75000
    endloop
  endfacet
  facet normal 0.00000000 0.00000000 1.00000000
    outer loop
      vertex 0.66000 0.66000 5.90000
      vertex 3.00000 0.66000 5.90000
      vertex 3.00000 3.00000 5.90000
    endloop
  endfacet
  facet normal 0.00000000 0.00000000 1.00000000
    outer loop
      vertex 0.66000 0.66000 5.90000
      vertex 3.00000 3.00000 5.90000
      vertex 0.66000 3.00000 5.90000
    endloop
  endfacet
  facet normal 0.00000000 -1.00000000 0.00000000
    outer loop
      vertex 0.66000 0.66000 1.75000
      vertex 3.00000 0.66000 1.75000
      vertex 3.00000 0.66000 5.90000
    endloop
  endfacet
  facet normal 0.00000000 -1.00000000 0.00000000
    outer loop
      vertex 0.66000 0.66000 1.75000
      vertex 3.00000 0.66000 5.90000
      vertex 0.66000 0.66000 5.90000
    endloop
  endfacet
  facet normal 1.00000000 0.00000000 0.00000000
    outer loop
      vertex 3.00000 0.66000 1.75000
      vertex 3.00000 3.00000 1.75000
      vertex 3.00000 3.00000 5.90000
    endloop
  endfacet
  facet normal 1.00000000 0.00000000 0.00000000
    outer loop
      vertex 3.00000 0.66000 1.75000
      vertex 3.00000 3.00000 5.90000
      vertex 3.00000 0.66000 5.90000
    endloop
  endfacet
  facet normal 0.00000000 1.00000000 0.00000000
    outer loop
      vertex 3.00000 3.00000 1.75000
      vertex 0.66000 3.00000 1.75000
      vertex 0.66000 3.00000 5.90000
    endloop
  endfacet
  facet normal 0.00000000 1.00000000 -0.00000000
    outer loop
      vertex 3.00000 3.00000 1.75000
      vertex 0.66000 3.00000 5.90000
      vertex 3.00000 3.00000 5.90000
    endloop
  endfacet
  facet normal -1.00000000 0.00000000 0.00000000
    outer loop
      vertex 0.66000 3.00000 1.75000
      vertex 0.66000 0.66000 1.75000
      vertex 0.66000 0.66000 5.90000
    endloop
  endfacet
  facet normal -1.00000000 0.00000000 0.00000000
    outer loop
      vertex 0.66000 3.00000 1.75000
      vertex 0.66000 0.66000 5.90000
      vertex 0.66000 3.00000 5.90000
    endloop
  endfacet
  facet normal 0.00000000 0.00000000 -1.00000000
    outer loop
      vertex -3.00000 -0.66000 1.75000
      vertex -3.00000 0.66000 1.75000
      vertex -2.10000 0.66000 1.75000
    endloop
  endfacet
  facet normal 0.00000000 0.00000000 -1.00000000
    outer loop
      vertex -3.00000 -0.66000 1.75000
      vertex -2.10000 0.66000 1.75000
      vertex -2.10000 -0.66000 1.75000
    endloop
  endfacet
  facet normal 0.00000000 0.00000000 1.00000000
    outer loop
      vertex -3.00000 -0.66000 5.90000
      vertex -2.10000 -0.66000 5.90000
      vertex -2.10000 0.66000 5.90000
    endloop
  endfacet
  facet normal 0.00000000 0.00000000 1.00000000
    outer loop
      vertex -3.00000 -0.66000 5.90000
      vertex -2.10000 0.66000 5.90000
      vertex -3.00000 0.66000 5.90000
    endloop
  endfacet
  facet normal 0.00000000 -1.00000000 0.00000000
    outer loop
      vertex -3.00000 -0.66000 1.75000
      vertex -2.10000 -0.66000 1.75000
      vertex -2.10000 -0.66000 5.90000
    endloop
  endfacet
  facet normal 0.00000000 -1.00000000 0.00000000
    outer loop
      vertex -3.00000 -0.66000 1.75000
      vertex -2.10000 -0.66000 5.90000
      vertex -3.00000 -0.66000 5.90000
    endloop
  endfacet
  facet normal 1.00000000 0.00000000 0.00000000
    outer loop
      vertex -2.10000 -0.66000 1.75000
      vertex -2.10000 0.66000 1.75000
      vertex -2.10000 0.66000 5.90000
    endloop
  endfacet
  facet normal 1.00000000 0.00000000 0.00000000
    outer loop
      vertex -2.10000 -0.66000 1.75000
      vertex -2.10000 0.66000 5.90000
      vertex -2.10000 -0.66000 5.90000
    endloop
  endfacet
  facet normal 0.00000000 1.00000000 0.00000000
    outer loop
      vertex -2.10000 0.66000 1.75000
      vertex -3.00000 0.66000 1.75000
      vertex -3.00000 0.66000 5.90000
    endloop
  endfacet
  facet normal 0.00000000 1.00000000 -0.00000000
    outer loop
      vertex -2.10000 0.66000 1.75000
      vertex -3.00000 0.66000 5.90000
      vertex -2.10000 0.66000 5.90000
    endloop
  endfacet
  facet normal -1.00000000 0.00000000 0.00000000
    outer loop
      vertex -3.00000 0.66000 1.75000
      vertex -3.00000 -0.66000 1.75000
      vertex -3.00000 -0.66000 5.90000
    endloop
  endfacet
  facet normal -1.00000000 0.00000000 0.00000000
    outer loop
      vertex -3.00000 0.66000 1.75000
      vertex -3.00000 -0.66000 5.90000
      vertex -3.00000 0.66000 5.90000
    endloop
  endfacet
  facet normal 0.00000000 0.00000000 -1.00000000
    outer loop
      vertex 2.10000 -0.66000 1.75000
      vertex 2.10000 0.66000 1.75000
      vertex 3.00000 0.66000 1.75000
    endloop
  endfacet
  facet normal 0.00000000 0.00000000 -1.00000000
    outer loop
      vertex 2.10000 -0.66000 1.75000
      vertex 3.00000 0.66000 1.75000
      vertex 3.00000 -0.66000 1.75000
    endloop
  endfacet
  facet normal 0.00000000 0.00000000 1.00000000
    outer loop
      vertex 2.10000 -0.66000 5.90000
      vertex 3.00000 -0.66000 5.90000
      vertex 3.00000 0.66000 5.90000
    endloop
  endfacet
  facet normal 0.00000000 0.00000000 1.00000000
    outer loop
      vertex 2.10000 -0.66000 5.90000
      vertex 3.00000 0.66000 5.90000
      vertex 2.10000 0.66000 5.90000
    endloop
  endfacet
  facet normal 0.00000000 -1.00000000 0.00000000
    outer loop
      vertex 2.10000 -0.66000 1.75000
      vertex 3.00000 -0.66000 1.75000
      vertex 3.00000 -0.66000 5.90000
    endloop
  endfacet
  facet normal 0.00000000 -1.00000000 0.00000000
    outer loop
      vertex 2.10000 -0.66000 1.75000
      vertex 3.00000 -0.66000 5.90000
      vertex 2.10000 -0.66000 5.90000
    endloop
  endfacet
  facet normal 1.00000000 0.00000000 0.00000000
    outer loop
      vertex 3.00000 -0.66000 1.75000
      vertex 3.00000 0.66000 1.75000
      vertex 3.00000 0.66000 5.90000
    endloop
  endfacet
  facet normal 1.00000000 0.00000000 0.00000000
    outer loop
      vertex 3.00000 -0.66000 1.75000
      vertex 3.00000 0.66000 5.90000
      vertex 3.00000 -0.66000 5.90000
    endloop
  endfacet
  facet normal 0.00000000 1.00000000 0.00000000
    outer loop
      vertex 3.00000 0.66000 1.75000
      vertex 2.10000 0.66000 1.75000
      vertex 2.10000 0.66000 5.90000
    endloop
  endfacet
  facet normal 0.00000000 1.00000000 -0.00000000
    outer loop
      vertex 3.00000 0.66000 1.75000
      vertex 2.10000 0.66000 5.90000
      vertex 3.00000 0.66000 5.90000
    endloop
  endfacet
  facet normal -1.00000000 0.00000000 0.00000000
    outer loop
      vertex 2.10000 0.66000 1.75000
      vertex 2.10000 -0.66000 1.75000
      vertex 2.10000 -0.66000 5.90000
    endloop
  endfacet
  facet normal -1.00000000 0.00000000 0.00000000
    outer loop
      vertex 2.10000 0.66000 1.75000
      vertex 2.10000 -0.66000 5.90000
      vertex 2.10000 0.66000 5.90000
    endloop
  endfacet
  facet normal 0.00000000 0.00000000 -1.00000000
    outer loop
      vertex -0.66000 -3.00000 1.75000
      vertex -0.66000 -2.10000 1.75000
      vertex 0.66000 -2.10000 1.75000
    endloop
  endfacet
  facet normal 0.00000000 0.00000000 -1.00000000
    outer loop
      vertex -0.66000 -3.00000 1.75000
      vertex 0.66000 -2.10000 1.75000
      vertex 0.66000 -3.00000 1.75000
    endloop
  endfacet
  facet normal 0.00000000 0.00000000 1.00000000
    outer loop
      vertex -0.66000 -3.00000 5.90000
      vertex 0.66000 -3.00000 5.90000
      vertex 0.66000 -2.10000 5.90000
    endloop
  endfacet
  facet normal 0.00000000 0.00000000 1.00000000
    outer loop
      vertex -0.66000 -3.00000 5.90000
      vertex 0.66000 -2.10000 5.90000
      vertex -0.66000 -2.10000 5.90000
    endloop
  endfacet
  facet normal 0.00000000 -1.00000000 0.00000000
    outer loop
      vertex -0.66000 -3.00000 1.75000
      vertex 0.66000 -3.00000 1.75000
      vertex 0.66000 -3.00000 5.90000
    endloop
  endfacet
  facet normal 0.00000000 -1.00000000 0.00000000
    outer loop
      vertex -0.66000 -3.00000 1.75000
      vertex 0.66000 -3.00000 5.90000
      vertex -0.66000 -3.00000 5.90000
    endloop
  endfacet
  facet normal 1.00000000 0.00000000 0.00000000
    outer loop
      vertex 0.66000 -3.00000 1.75000
      vertex 0.66000 -2.10000 1.75000
      vertex 0.66000 -2.10000 5.90000
    endloop
  endfacet
  facet normal 1.00000000 0.00000000 0.00000000
    outer loop
      vertex 0.66000 -3.00000 1.75000
      vertex 0.66000 -2.10000 5.90000
      vertex 0.66000 -3.00000 5.90000
    endloop
  endfacet
  facet normal 0.00000000 1.00000000 0.00000000
    outer loop
      vertex 0.66000 -2.10000 1.75000
      vertex -0.66000 -2.10000 1.75000
      vertex -0.66000 -2.10000 5.90000
    endloop
  endfacet
  facet normal 0.00000000 1.00000000 -0.00000000
    outer loop
      vertex 0.66000 -2.10000 1.75000
      vertex -0.66000 -2.10000 5.90000
      vertex 0.66000 -2.10000 5.90000
    endloop
  endfacet
  facet normal -1.00000000 0.00000000 0.00000000
    outer loop
      vertex -0.66000 -2.10000 1.75000
      vertex -0.66000 -3.00000 1.75000
      vertex -0.66000 -3.00000 5.90000
    endloop
  endfacet
  facet normal -1.00000000 0.00000000 0.00000000
    outer loop
      vertex -0.66000 -2.10000 1.75000
      vertex -0.66000 -3.00000 5.90000
      vertex -0.66000 -2.10000 5.90000
    endloop
  endfacet
  facet normal 0.00000000 0.00000000 -1.00000000
    outer loop
      vertex -0.66000 2.10000 1.75000
      vertex -0.66000 3.00000 1.75000
      vertex 0.66000 3.00000 1.75000
    endloop
  endfacet
  facet normal 0.00000000 0.00000000 -1.00000000
    outer loop
      vertex -0.66000 2.10000 1.75000
      vertex 0.66000 3.00000 1.75000
      vertex 0.66000 2.10000 1.75000
    endloop
  endfacet
  facet normal 0.00000000 0.00000000 1.00000000
    outer loop
      vertex -0.66000 2.10000 5.90000
      vertex 0.66000 2.10000 5.90000
      vertex 0.66000 3.00000 5.90000
    endloop
  endfacet
  facet normal 0.00000000 0.00000000 1.00000000
    outer loop
      vertex -0.66000 2.10000 5.90000
      vertex 0.66000 3.00000 5.90000
      vertex -0.66000 3.00000 5.90000
    endloop
  endfacet
  facet normal 0.00000000 -1.00000000 0.00000000
    outer loop
      vertex -0.66000 2.10000 1.75000
      vertex 0.66000 2.10000 1.75000
      vertex 0.66000 2.10000 5.90000
    endloop
  endfacet
  facet normal 0.00000000 -1.00000000 0.00000000
    outer loop
      vertex -0.66000 2.10000 1.75000
      vertex 0.66000 2.10000 5.90000
      vertex -0.66000 2.10000 5.90000
    endloop
  endfacet
  facet normal 1.00000000 0.00000000 0.00000000
    outer loop
      vertex 0.66000 2.10000 1.75000
      vertex 0.66000 3.00000 1.75000
      vertex 0.66000 3.00000 5.90000
    endloop
  endfacet
  facet normal 1.00000000 0.00000000 0.00000000
    outer loop
      vertex 0.66000 2.10000 1.75000
      vertex 0.66000 3.00000 5.90000
      vertex 0.66000 2.10000 5.90000
    endloop
  endfacet
  facet normal 0.00000000 1.00000000 0.00000000
    outer loop
      vertex 0.66000 3.00000 1.75000
      vertex -0.66000 3.00000 1.75000
      vertex -0.66000 3.00000 5.90000
    endloop
  endfacet
  facet normal 0.00000000 1.00000000 -0.00000000
    outer loop
      vertex 0.66000 3.00000 1.75000
      vertex -0.66000 3.00000 5.90000
      vertex 0.66000 3.00000 5.90000
    endloop
  endfacet
  facet normal -1.00000000 0.00000000 0.00000000
    outer loop
      vertex -0.66000 3.00000 1.75000
      vertex -0.66000 2.10000 1.75000
      vertex -0.66000 2.10000 5.90000
    endloop
  endfacet
  facet normal -1.00000000 0.00000000 0.00000000
    outer loop
      vertex -0.66000 3.00000 1.75000
      vertex -0.66000 2.10000 5.90000
      vertex -0.66000 3.00000 5.90000
    endloop
  endfacet
endsolid resin_insert
